<?xml version="1.0" encoding="UTF-8"?>
<svg id="Livello_2" data-name="Livello 2" xmlns="http://www.w3.org/2000/svg" viewBox="0 -42.85 517.21 517.21">
  <defs>
    <style>
      .cls-1 {
        fill: #6e7476;
      }

      .cls-2 {
        fill: #c1c3c8;
      }

      .cls-3 {
        fill: #b1b5bb;
      }

      .cls-4 {
        fill: #acb0b5;
      }

      .cls-5 {
        fill: #76797a;
      }

      .cls-6 {
        fill: #818587;
      }

      .cls-7 {
        fill: #7b8083;
      }

      .cls-8 {
        fill: #737879;
      }

      .cls-9 {
        fill: #7b8184;
      }

      .cls-10 {
        fill: #75797b;
      }

      .cls-11 {
        fill: #a3a8ad;
      }

      .cls-12 {
        fill: #8b8f91;
      }

      .cls-13 {
        fill: #71777a;
      }

      .cls-14 {
        fill: #777c7e;
      }

      .cls-15 {
        fill: #9b9fa3;
      }

      .cls-16 {
        fill: #d8dadf;
      }

      .cls-17 {
        fill: #e4e5e9;
      }

      .cls-18 {
        fill: #7e8284;
      }

      .cls-19 {
        fill: #7d8284;
      }

      .cls-20 {
        fill: #d1d4d9;
      }

      .cls-21 {
        fill: #95999d;
      }

      .cls-22 {
        fill: #cfd0d6;
      }

      .cls-23 {
        fill: #b1b5ba;
      }

      .cls-24 {
        fill: #373f3d;
      }

      .cls-25 {
        fill: #7c8184;
      }

      .cls-26 {
        fill: #7d8285;
      }

      .cls-27 {
        fill: #73787a;
      }

      .cls-28 {
        fill: #dddfe3;
      }

      .cls-29 {
        fill: #c4c7cc;
      }

      .cls-30 {
        fill: #b5b9be;
      }

      .cls-31 {
        fill: #85898d;
      }

      .cls-32 {
        fill: #adb3b9;
      }

      .cls-33 {
        fill: #878c8f;
      }

      .cls-34 {
        fill: #9fa3a5;
      }

      .cls-35 {
        fill: #757a7c;
      }

      .cls-36 {
        fill: #d4d6db;
      }

      .cls-37 {
        fill: #787d7f;
      }

      .cls-38 {
        fill: #7b7f81;
      }

      .cls-39 {
        fill: #e1e2e6;
      }

      .cls-40 {
        fill: #a2a6aa;
      }

      .cls-41 {
        fill: #666c6d;
      }

      .cls-42 {
        fill: #d1d2d8;
      }

      .cls-43 {
        fill: #878b8e;
      }

      .cls-44 {
        fill: #797e80;
      }

      .cls-45 {
        fill: #757b7d;
      }

      .cls-46 {
        fill: #dbdde2;
      }

      .cls-47 {
        fill: #adb2b8;
      }

      .cls-48 {
        fill: #82888b;
      }

      .cls-49 {
        fill: #727879;
      }

      .cls-50 {
        fill: #7a7e80;
      }

      .cls-51 {
        fill: #cdcfd4;
      }

      .cls-52 {
        fill: #6a6e6e;
      }

      .cls-53 {
        fill: #c6c8ce;
      }

      .cls-54 {
        fill: #888c8f;
      }

      .cls-55 {
        fill: #d7d8dd;
      }

      .cls-56 {
        fill: #7c8285;
      }

      .cls-57 {
        fill: #64696a;
      }

      .cls-58 {
        fill: #eeeff2;
      }

      .cls-59 {
        fill: #6c7173;
      }

      .cls-60 {
        fill: #8a8d90;
      }

      .cls-61 {
        fill: #696e6e;
      }

      .cls-62 {
        fill: #999da2;
      }

      .cls-63 {
        fill: #d3d4d9;
      }

      .cls-64 {
        fill: #c2c4c9;
      }

      .cls-65 {
        fill: #696e6f;
      }

      .cls-66 {
        fill: #a6aaaf;
      }

      .cls-67 {
        fill: #b2b6bb;
      }

      .cls-68 {
        fill: #bbbec4;
      }

      .cls-69 {
        fill: #7c8183;
      }

      .cls-70 {
        fill: #28312e;
      }

      .cls-71 {
        fill: #9fa3a8;
      }

      .cls-72 {
        fill: #808587;
      }

      .cls-73 {
        fill: #797f80;
      }

      .cls-74 {
        fill: #dcdde1;
      }

      .cls-75 {
        fill: #6d7171;
      }

      .cls-76 {
        fill: #dddfe2;
      }

      .cls-77 {
        fill: #8b9092;
      }

      .cls-78 {
        fill: #9ea2a7;
      }

      .cls-79 {
        fill: #4a5251;
      }

      .cls-80 {
        fill: #b1b3b6;
      }

      .cls-81 {
        fill: #9a9da0;
      }

      .cls-82 {
        fill: #868a8d;
      }

      .cls-83 {
        fill: #2f3735;
      }

      .cls-84 {
        fill: #b1b4b6;
      }

      .cls-85 {
        fill: #3a413f;
      }

      .cls-86 {
        fill: #6f7576;
      }

      .cls-87 {
        fill: #d5d7dc;
      }

      .cls-88 {
        fill: #7a8082;
      }

      .cls-89 {
        fill: #7c8182;
      }

      .cls-90 {
        fill: #cbccd2;
      }

      .cls-91 {
        fill: #8b9094;
      }

      .cls-92 {
        fill: #75797a;
      }

      .cls-93 {
        fill: #757a7d;
      }

      .cls-94 {
        fill: #808688;
      }

      .cls-95 {
        fill: #aaadb4;
      }

      .cls-96 {
        fill: #747a7c;
      }

      .cls-97 {
        fill: #808487;
      }

      .cls-98 {
        fill: #abaeb3;
      }

      .cls-99 {
        fill: #d7d8de;
      }

      .cls-100 {
        fill: #c4c6ca;
      }

      .cls-101 {
        fill: #262f2c;
      }

      .cls-102 {
        fill: #cccdd2;
      }

      .cls-103 {
        fill: #dadbdf;
      }

      .cls-104 {
        fill: #b5b8be;
      }

      .cls-105 {
        fill: #9ea3a8;
      }

      .cls-106 {
        fill: #999ea2;
      }

      .cls-107 {
        fill: #a4a8ac;
      }

      .cls-108 {
        fill: #6c7172;
      }

      .cls-109 {
        fill: #eaebee;
      }

      .cls-110 {
        fill: #818688;
      }

      .cls-111 {
        fill: #7e8285;
      }

      .cls-112 {
        fill: #8a8f93;
      }

      .cls-113 {
        fill: #8d9296;
      }

      .cls-114 {
        fill: #a3a7ac;
      }

      .cls-115 {
        fill: #d8dade;
      }

      .cls-116 {
        fill: #535a59;
      }

      .cls-117 {
        fill: #d6d8dd;
      }

      .cls-118 {
        fill: #888d90;
      }

      .cls-119 {
        fill: #797e7f;
      }

      .cls-120 {
        fill: #969b9f;
      }

      .cls-121 {
        fill: #d8d9de;
      }

      .cls-122 {
        fill: #969a9d;
      }

      .cls-123 {
        fill: #c2c6cc;
      }

      .cls-124 {
        fill: #303735;
      }

      .cls-125 {
        fill: #646a6b;
      }

      .cls-126 {
        fill: #868b8e;
      }

      .cls-127 {
        fill: #83888a;
      }

      .cls-128 {
        fill: #7e8386;
      }

      .cls-129 {
        fill: #8b9093;
      }

      .cls-130 {
        fill: #babdc3;
      }

      .cls-131 {
        fill: #797d7f;
      }

      .cls-132 {
        fill: #3f4644;
      }

      .cls-133 {
        fill: #7e8385;
      }

      .cls-134 {
        fill: #7a7f81;
      }

      .cls-135 {
        fill: #7d8286;
      }

      .cls-136 {
        fill: #dbdce1;
      }

      .cls-137 {
        fill: #84898c;
      }

      .cls-138 {
        fill: #414947;
      }

      .cls-139 {
        fill: #cccdd3;
      }

      .cls-140 {
        fill: #797c7e;
      }

      .cls-141 {
        fill: #b9bdc4;
      }

      .cls-142 {
        fill: #424948;
      }

      .cls-143 {
        fill: #7f8587;
      }

      .cls-144 {
        fill: #d6d9dd;
      }

      .cls-145 {
        fill: #e5e7eb;
      }

      .cls-146 {
        fill: #717778;
      }

      .cls-147 {
        fill: #858a8d;
      }

      .cls-148 {
        fill: #6a6e70;
      }

      .cls-149 {
        fill: #6a6f6e;
      }

      .cls-150 {
        fill: #818689;
      }

      .cls-151 {
        fill: #8d9295;
      }

      .cls-152 {
        fill: #a2a7ab;
      }

      .cls-153 {
        fill: #bcc0c7;
      }

      .cls-154 {
        fill: #c4c6cc;
      }

      .cls-155 {
        fill: #72787a;
      }

      .cls-156 {
        fill: #a8abae;
      }

      .cls-157 {
        fill: #afb4b9;
      }

      .cls-158 {
        fill: #343b39;
      }

      .cls-159 {
        fill: #909395;
      }

      .cls-160 {
        fill: #94989c;
      }

      .cls-161 {
        fill: #83888b;
      }

      .cls-162 {
        fill: #989da1;
      }

      .cls-163 {
        fill: #b3b6ba;
      }

      .cls-164 {
        fill: #808689;
      }

      .cls-165 {
        fill: #9fa4a9;
      }

      .cls-166 {
        fill: #777c7f;
      }

      .cls-167 {
        fill: #6e7272;
      }

      .cls-168 {
        fill: #868c90;
      }

      .cls-169 {
        fill: #bbbfc6;
      }

      .cls-170 {
        fill: #757b7c;
      }

      .cls-171 {
        fill: #999da1;
      }

      .cls-172 {
        fill: #bbbfc7;
      }

      .cls-173 {
        fill: #83878a;
      }

      .cls-174 {
        fill: #e7e8ec;
      }
    </style>
  </defs>
  <g id="Livello_1-2" data-name="Livello 1">
    <g>
      <path class="cls-95" d="M0,217.73c7.24,1.22,14.96,3.76,21.71,7.24,16.14,5.01,32.25,10.7,47.28,18.33,4.83,1.93,9.77,4.62,14.25,7.37,9.74-.13,18.75,1.95,26.76,8.07,4.16,3.22,7.74,7.19,10.61,11.58,1.79,1.92,1.08,1.24,1.93,3.38,7.78,16.54,16.16,32.79,26.54,47.77,5.14,7.51,11.03,14.17,17.68,19.98,6.97,3,13.3,6.96,18.99,11.87l2.1,1.47c7.66.49,15.41,1.75,23.09,3.58,6.56.34,13.12.58,19.68.74.32.02.65-.02.96,0,.42.14.42.3,0,.48l-1.09.88-8.71-.05.43.75c9.27,1.4,18.2,3.68,26.28,8.45,8.79-1.31,17.54-2.5,26.13,1.14,5.19,2.29,6.57,4.85,6.66,9.58l.62.22c-.08.93.19,1.82.83,2.67l-1.31.73c-17.03-.5-34.62,3.23-50.81,8.71l-7.55,1.71-1.61-.54q-.47-.8,0,0l-.25,1.09c-12.79,5.66-25.86,7.59-39.22,2.02,10.56,4.81,20.76,5.58,31.45,1.16l18.86-2.63c12.57-3.22,25.23-5.97,37.97-8.27,7.39-1.58,15.47,2.55,18.73,9.26.43-3.02-.62-6.12-2.5-8.49l.1-1.37c-.07-.47.25-.47.96,0,2.1,2.06,1.86,1.39,2.89,4.34.72,2.52.72,4.93,0,7.24-.36.5-.68.65-.96.96-1.32,1.03-2.29,1.19-2.89.48l-2.17.77-13.47-1.3c-15.31,1.94-29.73,6.65-43.82,12.65-16.19,5.55-22.86,5.7-38.89.9-11.44-3.42-22.75-8-33.56-12.4-4.88.76-9.75,1.1-14.61,1.02,19.77,4.86,39.83,10.18,60.17,15.95,1.05.36,1.23.87.48,1.71-1.93-.15-3.92-.44-5.97-.87-1.2-.2-2.43-.49-3.71-.86,5.36,3.76,12.79,6.38,19.88,5.48,10.14-2.23,20.32-4.67,30.52-7.32,10.38-3.68,18.6,1.95,24.9,9.37,1.92-.29.66-3.75,0-5.1-2.32-4.68-8.54-7.36-13.2-9.11l.18-1.23c3.33.38,10.67,3.97,12.86,6.44,1.96,2.21,5.04,8.58,2.58,10.93l-1.87.52c-18.43.55-36.33,1.78-54.75,3.24-3.36.27-6.65.61-9.96,1.06-.93,0-2,.1-2.89,0-13.58-5.77-27.41-11.24-41.49-16.4-5.75-1.56-10.07-3.35-15.44-5.31-5.24-.46-9.74-2.07-13.51-4.82-5.64-4.2-9.2-10.43-12.45-16.51-2.62-5.11-5.22-10.22-7.81-15.33-7.76-11.85-16.27-23.17-25.09-34.26-3.45-3.41-6.85-6.89-10.21-10.43-14.55-25.7-42.89-46.31-72.51-49.39l-.75-.97v-60.31Z"/>
      <path class="cls-153" d="M0,278.04c1.48.05,2.99-.15,4.47.11,25.83,4.58,50.14,21.19,65.21,42.38,2.13,3,3.87,6.88,5.87,9.57s5.56,5.85,7.92,8.73c-.15.21-.31.2-.48,0-16.22-19.06-45.24-28.64-69.48-31.84l-1.84-.8c-4,.09-7.89-.28-11.67-1.13v-27.02Z"/>
      <path class="cls-36" d="M0,216.76l18.14,5.72c1.08,1.07,2.14,1.49,3.57,2,.4.14.39.3,0,.48-4.27-1.5-8.09-3.29-12.45-4.68-3.02-.96-6.31-1.33-9.26-2.56v-.96Z"/>
      <path class="cls-17" d="M13.51,306.99c-3.09-.41-7.21-.1-10.41-.44-.64-.07-1.37-1.79-3.1-1v-.48c3.43.46,8.62-.09,11.81.49.9.17,1.34.64,1.7,1.44Z"/>
      <path class="cls-95" d="M247.99,10.26c-.46-1.93-1-5.03,1.71-5.26,19.86-.37,39.81-1.4,59.87-3.1,2.71-.97,5.34-1.32,7.87-1.03,11.48,4.96,24.05,9.9,36.31,14.53,11.13,4.21,21.26,7.7,32.31,10.64,5.92,2.97,10.69,11.14,13.98,16.83l8.58,16.39c7.38,12.7,16.81,24.32,26.08,35.43,6.52,7.29,12.81,14.96,18.88,23,14.83,20.06,37.88,32.77,62.62,36.02.57.13.79,1.05.52,1.53.42,19.14.42,39.8,0,59.1l-.31.75c-7.11-1.82-14.18-4.16-21.2-7-19.68-6.32-38.85-14.37-57.5-24.13l-1.08-.97-5.01-1.13c-6.03-.11-11.52-1.01-17.18-3.21-18.16-8.66-20.39-20.75-28.37-37-6.54-13.3-21.89-37.57-32.4-47.69-4.12-3.97-11.66-6.35-16.54-9.41-3.96-2.48-6.95-7.15-11.71-7.7-5.28-.61-10.45-1.25-15.68-1.93l-1.22-.43c-1.9.04-3.47-.35-4.69-1.16-1.06,1.4-4.04,1-5.66.62-.76.1-1.11-.37-1.03-1.43-8.49-1.54-16.56-3.49-24.45-6.67l-3.92-2.54-7.46.98c-8.81.52-20.86.37-25.25-8.67-.23,2.5.63,4.95,1.5,7.26l-.66.94c-2.27-2.61-3.22-5.26-2.84-8.88.28-2.64,2.28-4.21-1.02-6.08-.21-2.41,2.51-.46,3.68.46,11.13-1.2,22.33-2.42,33.6-3.66,12.95-5.05,26.8-8.91,40.59-12.16l.55-.86c5.73-1.41,11.62-.14,17.15,1.63l.45,1.08c.42.14.42.3,0,.48l-1.17.8-8.27-1.05c-2.69-1.98-4.7-1.84-7.26.37-6.68,1.5-13.24,3.37-19.67,5.59l21.52-3.64c7.14-1.19,13.68,1.13,20.37,3.64,8.77,3.76,17.52,7.37,26.26,10.84,5.99.46,12,1.06,18.02,1.79.51-.85-15.77-8.91-17.45-9.42-1.5-.46-5.77,1.28-7.36,2.09-1.08.05-4.94-2.46-4.73-3.78.64-.64,1.59-.66,2.84-.08l2.08.25c-5.68-1.6-11.28-3.82-16.67-6.39-.05-.52-.15-.95-.39-1.06-11.76-5.51-23.44-6.55-35.41-1.82-18.06,3.46-36.08,6.87-54.05,10.23-6.1,2.48-15.05-1.46-18.38-7.03-1.46-1.47-1.48-1.46-2.56.11.81.54,1.23,1.53,1.26,2.96.93,1.52,1.15,2.79.67,3.8-.21.54-.69.22-1.45-.96-.33-.65-.73-1.17-.96-1.93-.42-2.04-.83-8.12,1.83-8.52.17-.03.37.12.58.32,4.28-1.24,8.76-1.09,13.44.44l4.34.18c7.51-1.86,15.21-3.29,23.09-4.29,19.65-10.38,42.62-17.03,64.21-7.31l21.92,8.13c5.07,2.15,9.84,2.26,15.08.94l4.19.14c-15.2-4.47-30.86-8.77-46.24-12.03l-.93-1.24c-3.72-1.37-17.84-4.19-21.37-3.38l-.9.89c-4.61.9-9.22,1.76-13.84,2.56l-.66,1c-7.75,2.09-15.53,4.35-23.34,6.78-1.85.38-4.69-.21-3.77-2.45l.83-.79c3.35,1.12,6,.39,8.71-1.57l14.79-3.86c.68-1.32,2.03-1.85,4.06-1.59,8.27-2.42,16.59-4.34,25.2-2.65-1.85-1.06-3.77-1.91-5.78-2.56-13.25,2.21-26.89,5.02-39.95,8.79-2.68.61-8.51,1.1-9.94-1.55-4.46-1.34-7.69-3.57-10.29-7.45-3.73-4.14-.54,4.79,1.3,6.09,1.61,1.16,2.57,2.41,2.86,3.75-3.78-1.16-7.52-5.7-7.72-9.65Z"/>
      <path class="cls-101" d="M265.36,87.94c8.7,1.25,17.56,3.49,26.05,6.27,2.93,1.47,5.82,2.92,8.68,4.34,2.44.56,4.83,1.72,6.75,3.38.13.06.35-.06.48,0,1.63,1.33,3.39,2.46,5.31,3.38l3.86,2.89c.65.29.81.63,1.93.96.9.63,1.97.96,3.04,1.09,11.24-.42,22.92,2.83,32.18,9.53,1.78,1.15,3.39,2.6,4.82,4.34,5.34,1.61,8.99,22.25,5.97,23.44-.16.06-.4-.08-.66-.28-.23-.04-.41-.09-.42-.14-.11-2.22-.28-6.88-.16-8.95,0-.11.26-.21.58-.31l-.59.11-1.82-4.69c-1.6-3.71-4.1-7.74-7.72-9.65-.65-.61-1.11-1.12-1.45-1.45-1.3-1.09-2.79-1.79-4.34-2.41-1.34-.49-2.22-.96-3.38-1.45-.88-.53-1.68-1.02-2.41-1.45-1.41-.25-3.1-.8-4.34-.96-1.88-.44-8.93-1.69-10.08-.67-2.08,1.84,8.36,4.99,9.6,4.04,1.99.99,4.08,1.8,6.27,2.41l.66.75c3.02,1.66,7.05,4.57,8.41,8.41,1.28,3.6.24,5.7-1.36,1.46-.83-.91-1.63-1.87-2.41-2.89l-2.41-2.41c-.75,1.2-7.42-2.19-7.85-2.77l.13-1.09c-2.22-.6-2.38.2-.48,2.41,1.16-.81,1.57-.27.96.96.71,1.03,1.51,2,2.41,2.89,1.15-.69,1.46-.27.96.96,1.32,1.32,2.44,2.76,3.38,4.34,1.41,2,.62,2.88-1.45,1.45-.31.42-.78,0-.96-.48l-7.24-5.79c-.96-.59-1.67-1.28-1.93-2.41-2-.98-3.93-2.26-5.79-3.86-.38-.93-1.11-1.75-2.05-2.17-2.27-1.02-9.44-.73-12.23-.52-.4.03-.79.08-1.16.27l-4.82.96c-.48.03-.97-.03-1.45,0-1.58.59-4.27,1.17-6.28,1.51-2.95.49-10.34,1.5-13.03.83-4.77-1.2.03-2.4,2.79-1.86,2.87-1.25,5.26-2.15,8.98-2.6,5.78,0,11.81-.79,17.56-1.59,3.58-.5,4.32-2.28.41-2.94-4.77-.81-10.57,1.19-14.65,3.52l-1.58-.25c-.09.43-.25.41-.48,0l-.66.96c-8.05,2.05-24.88,3.76-29.95-4.63-2.09-3.46-.85-5.31,1.18-1.63.93.85,2.02,1.97,2.89,2.89,1.03,1.09,2.32,1.73,3.86,1.93,6.79.76,13.7-.04,20.75-2.41,2.62-1.03,5.36-1.83,8.2-2.41.71-.29,2.36-.76,2.62-.93,1.91-1.25-3.7-3.51-4.55-3.89-1.86-.82-3.47-1.78-4.82-2.89-3.35-.94-6.72-2.07-10.13-3.38-1.29-.31-2.58-.64-3.86-.96-3.45-1.53-7.15-2.49-11.1-2.89-10.35-2.65-20.75-2.42-31.25-1.05-5.38.7-11.85,1.62-16.52,3.95-4.45,1.24-9.34,3.32-13.51,4.34-.74.44-1.54.92-2.41,1.45-7.42,2.93-16.49,8.18-23.16,12.54l-3.38,1.93c-1.7,1.47-1.83,1.71-3.86,2.89l-4.82,3.38c-2.1,2.05-4,3.44-6.27,5.31-.67,1.23-1.79,2.08-2.89,2.89-.36.41-.68.66-.96.96-1.42.79-2.47,2.05-3.38,3.38-.49.52-1.06,1.02-1.45,1.45-1.46.94-2.73,2.22-3.38,3.86-1.59,1.79-2.88,3.42-4.34,5.31-2.83,2.87-5.25,6.09-7.24,9.65-1.67,2.45-3.02,5.08-4.34,7.72-1.64,1.58-2.82,4.03-3.38,6.27-.33.64-.64,1.29-.96,1.93-1.14,1.54-1.95,3.31-2.41,5.31-2.86,7.15-5.44,14.39-7.72,21.71-1.57,8.01-2.4,14.16,4.34,20.26,1.56,1.56,2.69,3.33,3.38,5.31,2.28,2.43,4.21,5.16,5.79,8.2,2.28,4.16,4.21,8.55,5.66,13.07l-.36.44.44,4.16c-.75,1.4-1.95-1.74-1.89-2.72-2.19-3.72-4.28-7.58-6.27-11.58-1.68-1.99-3.29-4.08-4.82-6.27l-2.41-3.86-3.38-5.31c-.93-2.1-1.9-3.23-2.89-3.38-.14.33-.27,1.28-.48,1.93-.54,4.97-.86,9.95-.96,14.96.82-.16,1.28.75.96,1.45l.64.88c-2.27,4.1-2.85,4.22-4.01-.4-.27.04-.5.06-.6-.05-1.51-1.66-3.94-4.54-5.3-6.35-3.06-4.07-6.16-9.21-3.61-13.93.93,4.89,3.19,9.14,6.14,13.09,2.61,2.65,3.36-.26,2.26-8.75.99-5.58.88-11.03-.33-16.34-.44-.25-.76-.73-.96-1.45-2.81-9.94-2.25-20.09.84-30.11,1.77-5.74,4.4-12.36,8.33-16.69,1.77-1.72,2.56-1.34,1.45.96-.47,2.37-1.27,4.78-2.41,7.24-.7,2.06-1.3,4.19-1.93,6.27-1.05,1.92-1.86,4.17-2.41,6.75-.23,1.43-.34,2.9-.48,4.34-.07.58-.22,1.12-.55.6-.13,1.55-.8,10.99-.28,11.54.48.5,1.43.29,1.5-.56l1.74-7.24c.03-.16-.03-.33,0-.48,1.94-6.38,4.22-12.96,7.24-18.82.96-2.17,1.96-4.48,2.89-6.75,5.26-9.89,12.08-18.97,19.3-27.5l6.75-7.24c8.03-8.01,16.72-15.08,26.05-21.23,1.49-.93,3-2.1,4.34-2.89,5.27-2.49,10.54-5.11,15.8-7.86,2.72-.9,5.17-1.98,7.35-3.24,2.76-.73,5.5-1.54,8.2-2.41,1.17-.19,2.3-.52,3.38-.96,12.63-3.84,26.43-4.74,39.56-2.89Z"/>
      <path class="cls-153" d="M437.12,97.11c.66.63,1.23,1.31,1.93,1.93,8.39,9.08,20.41,14.57,31.8,19.09,7.54,2.61,15.11,4.77,22.72,6.48,7.85,1.27,15.59,2.06,23.23,2.39l.41.5v88.3c-.57.56-10.31-2.75-11.87-3.31-11.04-3.93-22.48-8.45-33.38-12.57-9.55-3.61-28.51-10.12-35.32-16.45-.36-.14-.35-.3,0-.48,10.4,5.56,19.73,9.75,30.51,14.12,7.4,3,14.52,5.93,22.45,8.43.76.24,2.29-.03,2.5.18.17.17-.12,1.18.05,1.34.2.19,1.73-.04,2.49.18,6.08,1.8,12.31,4.91,18.33,6.27,1.02.23,2.14,1.41,3.75.83v-59.1l-.8-.64c-13.68-1.6-28.03-6.97-39.6-14.39-16.33-10.48-23.07-21.38-34.18-36.31-1.77-2.38-4.65-4.74-6.49-7.02-.58-.72-1.13-1.09-.95-2.19,1,.31,1.8,1.12,2.41,2.41Z"/>
      <path class="cls-70" d="M366.68,174.31l.58.24c1.99-1.46,2.13-.94,1.35,1.21.43.09.41.25,0,.48-.78,1.23-.86,2.63,0,3.86.43.12.42.28,0,.48.13,1.18-.05,1.68-.53,1.52-1.25-2.2-2.52-1.42-3.81,2.36-.65,1.5-1.56,2.38-2.75,2.65-5.62,4.32-10.81,8.9-15.59,13.74,1.12.96-1.21,3.63-2.41,2.89-6.48,8.82-5.31,21.69,1.45,29.91,2.17.73,5.51,4.41,5.31,6.75,1.07,1.73,2.46,2.59,4.34,1.45l.08-1.21c.73-.34,2.04-1.24,1.27-2.14l-7.04-7.51-.1-1.68c-1.06-2.27-2.18-4.53-3.38-6.75-2.72-7.63.49-15.11,5.79-20.75-1.02-1.26.98-3.23,2.41-2.89,1.26-1.43,4.17-2.72,2.41,0l.08.59c-4.02,5.77-8.48,12.32-7.8,19.68,1.47.35,2.09,2.32.96,3.38,1.17,2.82,2.64,5.55,4.82,7.72,1.16-.87,1.67-.31.96.96,1.63,2.21,3.46,3.83,5.49,4.85,2.51.02,8.92-9.69,4.16-11.6-1.87-.85-2.55-2.39-1.93-4.34-.28-1.5-.76-2.95-1.45-4.34-1.26-2.08-1.03-17.54-.22-17.94.36-.18.7.14.74.55l.44,5.81c.1,2.43.42,4.84.96,7.24,1.11,1.07,1.76,2.6,1.96,4.58,1.05,2.03,1.36,3.88.93,5.55,1.86,1.58,2.31.44,2.76-1.36,1.92-7.71.14-14.79-1.79-22.28-.7-2.26-.47-4.9,0-7.24.66-.69.98-.69.96,0,.21-.36.51-.76.89-.74.44.02,5.23,5.51,3.55,7.15,1.16.69,1.43,1.5,1.22,2.8-.84,5.2-1.62,11.59.62,16.35.55.43.69,1.18,0,1.45.6,1.4,1.14,3.4-.96,2.89-1.81,2.08-2.77,8.99,0,11.1,1.69-.12,4.48,3.82,3.38,5.31,2.83,1.66,2.99,6.17,2.41,9.17,1.2,1.72,1.87,17.02-.08,16.63-.46-.09-.74-.78-.83-1.25.66-5.16.32-9.97-1.02-14.41-.16-.75-.7-2.05-.96-2.89l-2.41-5.31c-.41-1.28-1.06-2.4-1.93-3.38-.57-1.07-1.03-2.93-2.17-2.41-.65.29-1.01,2.3-1.67,3.15-.56.73-1.58.96-1.97,1.53-2.16,3.16-.08,4.49,1.47,6.89.66,1.94,1.78,3.71,3.38,5.31.6,1.88,1.4,3.65,2.41,5.31.39,1.08.66,2.27.96,3.38.66,2.41.99,4.67.96,6.75.31,1.75-1.55,1.73-1.45,0-1.39-.14-1.91-1.56-1.55-4.27l-.86-2.49c-.43.07-.93.02-1.11-.36-.75-2.43-5.72-14.52-8.84-13.39-1.55.56-3.29,2.9-1.29,4l-.34,1.06c2.99,3.53,6.2,7.07,9.65,10.61.42-.21.56-.02.48.48l.95,1.7c1.11.85,2.48,2.84,1.46,4.09,1.05.34,2.09.68,3.14,1.02,1.14,2.49,1.18,18.41-.66,19.28-.55.26-.87-.4-1.03-1,.9-12.45-6.14-24.11-15.44-31.84-.15-.17-.33-.32-.48-.48-4.23-4.1-6.27-4.02-11.56-2.21-1.59-.34-3.17-.75-4.72-1.25-1.93-.25-4.9-.09-5.43.57.23.18.07.34-.48.48-1.02.15-3.03,1.11-4.34,1.45-4.34,1-8.2,2.77-11.58,5.31-.77.35-1.52.31-1.93.48-2.03,1.56-4.12,3-6.27,4.34l-5.31,3.38c-5.5,4.44-10.81,9.11-15.92,13.99-5.31,5.16-10.29,10.63-14.96,16.4-2.31,2.06-4.24,4.47-5.79,7.24-.33.37-.66.64-.96.96-1.93,2.98-5.63,7.64-3.38.96.16-.32.33-.64.48-.96,8.01-14.87,19.54-27.81,31.84-38.6,6.21-5.87,13.12-10.53,20.75-13.99-.28-.66.77-.99,1.45-.96,1.8-1.24,4.13-2.62,6.27-2.89,4.84-2.72,9.89-4.18,15.15-4.39l2.53.42c1.78,1.27,3.72,1.44,2.77-1.1-3-3.21-5.64-6.67-7.91-10.38-9.22-15.39-1.79-31.03,11.36-41.11l14.52-12.51c1.3-1.37,2.2-3.87.86-5.39.09-1.24,2.26-1.13,1.24.14Z"/>
      <path class="cls-141" d="M263.91,23.29c1.51,2.84,4.61,1.14,6.66.63,5.4-1.35,11.64-3.68,17.26-5.42.65-.2,1.6.13,2.32-.1.66-.21.61-1.27,1.11-1.39,4.28-.99,9.75-1.46,13.81-2.41.36-.08.3-.86.66-.94,4.55-1.09,17.44,2.09,22.48,3.36.53.13.45,1.14,1.14,1.37,4.2,1.44,10.22,1.93,14.75,3.12,9,2.36,18.19,4.93,27.01,7.73.55.18,8.48,1.67,7.63,2.74-2.41.59-4.87-.14-7.5-.01-2,.1-4.29.87-6.26.98-4.51.25-9.87-2.08-14.23-3.61-9.11-3.21-18.42-7.35-27.88-9.75-17.26-4.39-31.98,1.49-47.86,7.83-1.87.75-3.75,2.39-5.7,2.99-3.89,1.19-8.77.99-12.77,1.7-6.21,1.1-7.29,3.17-14.54,2.25-4.34-.55-8.76-2.37-13.32-1.4-.1-.3-.15-.55-.06-.62,3.68-2.93,12.82-3.13,17.34-2.14,4.12-.95,8.17-2.44,12.16-4.48,1.64-.44,6.1-.42,4.82-2.41.28-.93.71-.94.96,0Z"/>
      <path class="cls-52" d="M226.76,37.28c.13-.69.51-1.74,1.32-1.59,3.57,5.9,9.09,8.7,15.78,9.44,23.4-4.44,46.71-9.09,69.93-13.97,3.51-1.82,22.54,2.89,24.45,5.37.18.24-.29,1.38-.88,1.16-2.74-1.13-5.52-1.91-8.32-2.34-2.82-.54-6.71-2.11-8.99-2.35-1.61-.17-5.75-.35-7.19-.07-1.2.23-1,1.35-1.52,1.47-9.27,2.09-18.26,4.77-27.27,7.36-3.67,1.06-6.9,2.13-9.92,3.72-4.76,2.51-25.56,3.28-32.19,3.88-1.48.13-4.14.99-5.35.92-.86-.05-1.44-1.13-2.39-1.48-.79-.29-1.13.09-1.19.07-1.38-.54-1.53-.92-2.41-1.93-1.02-.62-2.32-1.72-1.93-2.89-1.23-2.37-2.12-4-1.93-6.75Z"/>
      <path class="cls-52" d="M255.71,19.91c-4.25-2.89-7.35-7.11-6.75-12.54,3.23.68,4.56,4.15,6.73,6.05s4.83,2.28,6.77,3.39c.33.19.29.95.86,1.17,2.07.79,6.81.6,9-.03,10.87-3.13,24.04-6.16,35.15-7.79,1.53-.22,2.4-1.17,4.42-.84s4.93,2.21,6.47,2.81c2.37.93,4.94,1.53,7.31,2.48-.85,1.83-4.04-.07-5.66-.38-11.77-2.2-16.23-.82-27.5,2.19-.89.24-1.95-.07-2.73.18-.66.22-.59,1.24-1.13,1.38-5.24,1.32-10.7,2.43-15.94,4.2-.57.19-.5.97-.94,1.09-3.77,1.03-4.23.89-7.86.02-.28-.07-.67.06-.96,0-1.97-.38-5.3-2.06-7.24-3.38Z"/>
      <path class="cls-149" d="M236.89,63.82c-.12-.16-1.22-3.33-1.32-3.74-.34-1.33-.7-3.75-.5-5.06.06-.36.81-2.64,1.34-2.78.09,3.66,1.88,6.06,4.9,7.89,6.05,3.67,12.36,3.49,19.49,3.23,2.1-.08,6.41-1.21,8.15-.99,1.2.15,2.94,2.05,4.17,2.62,2.24,1.05,5.4.96,7.15,2.96l17.92,3.81-.02,2.19c-1.22.41-2.62.42-3.86,0-2.09-.04-3.45-.27-5.31-.48-.85-.3-1.97-.62-3.38-.96-4.49-.38-9.64-1.51-13.51-3.86-2.14-1.67-4.07-2-5.79-.96-2.46.08-5.6.75-8.2.96-3.5.49-7.1.42-10.61,0-2.16-.12-3.24-.21-5.31-.96l-5.31-3.86Z"/>
      <path class="cls-83" d="M309.26,171.41c3.6-1.32,9.24.2,2.02,1.52-6.53,2.8-13.08,5.69-19.39,9.1-.71.43-1.26.62-1.93.96-.75.56-1.39,1.2-1.93,1.93-22.1,14.81-27.57,41.45-31.41,66.29l-.56,1.47c.35,6.54-2.8,6.57-1.27.5l.43-8.92c.48-12.39,3.18-25.32,9.17-36.19,1.82-5.55,5.55-11.08,9.29-15.68.15-.19.47-.23.85-.24,7.17-10.28,18.5-15.69,30.35-19.04l1.01-.75c.33-.86,2.38-1.18,3.38-.96Z"/>
      <path class="cls-24" d="M369.57,184.44c.85.92,1.1,3.07.96,4.34l.35.17c.09,2.37.78,3.28,2.06,2.73.56-.36,1.04-.36,1.45,0,.2,4.77.83,9.48,1.9,14.13l-.45.83-.83.93c-.36-.81.24-.64,1.79.52.1,1.26.42,2.39.96,3.38l1.45,3.86c.66,1.6,1.34,3.19,1.93,4.82,3.38,6.39,4.55,13.79,3.33,20.91l1.01,4.66c.03.32-.02.65,0,.96,2.37,8.34,2,21.68-2.55,29.52-2.2,3.79-2.84.1-1.31-2.02,2.6-7.7,3.15-16.27,1.45-24.12-.56-1.54-.99-2.74-1.45-4.34-2.41-3.41-3.45-6.96-3.38-11.1l-1.18-.52-3.68-11.91.51-1.08c-.35-.05-.51-.21-.48-.48.94-.92.89-1.72.96-2.89.82-.13,1.09.68.96,1.45.95,1.81,1.76,3.74,2.41,5.79,1.56-.19,2.48,1.69,1.45,2.89.99,1.6,1.93,3.23,2.83,4.89-.34-2.94-.96-5.85-1.86-8.75-2.34-1.85-3.79-5.27-3.38-8.2-1.71-2.07-2.23-2.19-2.41.48-2.08-.15-1.27-4.17-1.47-5.52-.14-.97-.81-1.71-.96-2.9-.3-2.46,1.1-8.42.92-9.16-.15-.61-1.36-.57-1.43-1.06s.49-1.27.47-1.88c0-.18-.8-3-.91-3.12-.09-.09-1.37.7-1.92.49.7-2.59-.84-2.25-.97-2.41.44-1.72.54-3.59.3-5.62.01-1.52.28-2.13,1.15-.66Z"/>
      <path class="cls-136" d="M247.99,10.26c-1.36-2.81-1.29-5.28,2.22-5.74,6.12-.81,13.5-.18,19.73-.53,10.77-.61,21.61-1.48,32.34-2.4,2.93-.25,6.65.18,9.55-.5.41-.1.13-.88,1.03-.99.96-.12,3.43-.12,4.4,0,.85.1.69.8,1.08.95,13.89,5.53,27.36,10.84,41.48,15.83,5.67,2,12.35,4.6,18.15,6.49,3.61,1.17,7.62,1.15,10.68,3.78,11.03,9.46,15,23.94,22.6,35.78,5.7,8.87,13.38,19.07,20.1,27.19,1.9,2.29,4.89,4.01,5.78,7.01-.85-.81-1.6-1.57-2.41-2.41-9.77-10.09-22.36-27.17-28.75-39.52-4.64-8.96-9.68-20.04-17.25-26.9-3.89-3.52-10.95-3.8-15.9-4.98-.51-.12-.46-1.18-1.12-1.39-1.37-.43-3.73-.68-5.14-1.14-13.17-4.3-25.83-10.26-38.87-15.28-1.93-.75-10.3-4.12-11.52-4.28-.74-.1-1.47.76-2.34.83-16.81,1.41-33.79,2.62-50.61,3.42-4.79.23-9.65-.19-14.44-.05-.75.2-.82,4.05-.78,4.85Z"/>
      <path class="cls-158" d="M361.37,154.52c7.68-4.18,14.14-8.25,20.04-14.56.81-.28,1.86-.3,2.16.57.81,2.32.79,6.1,0,8.44-1.92,5.55-5.45,10.46-10.61,14.72-2.72,3.48-5.18,7.05-7.39,10.69-.54-.12-.99-.01-1.3.41,1.18.96-.6,3.64-1.93,3.38-.06.4-.34.83-.77.71-1.96-.55,2.89-9.47,4.14-10.36,1.54-2.5,3.15-4.91,4.82-7.24.35-.4.71-.68.96-.96,4.23-3.17,7.29-7.03,9.17-11.58,1.01-1.62.8-3.29-.96-2.89-1.66,1.19-4.3,4.43-5.65,5.33-2.25,1.5-6.75,2.79-9.19,4.18s-5.06,3.85-7.36,5.45c-.94.96-1.55,2.29-1.81,3.99-.06,1.1-.53,4.62-2,3.64s1.45-9.06,3.33-10.04c1.03-1.57,2.51-3.47,4.34-3.86Z"/>
      <path class="cls-172" d="M289.48,399.14c-5.26,5.89-14.43,2.83-21.25,4.08-2.83.52-5.95,2.9-8.08,3.6-1.39.46-6.61.77-6.86,1.01-.05.05-.06,1.27,0,1.45-.3,1.29-.84,1.16-1.45,0-.4-.07-.56-.23-.48-.48-1.57-1.89-3.53-1.84-5.88.16-.98.26-7.31,1.75-7.7,1.72-1.67-.13-2.21-.17-1.28-2.03.17-.33,5.94-2.81,6.77-3.12,6.47-2.42,14.4-4.18,21.31-5.49,2.29-.43,10.53-1.88,11.85.15-.07,2.33,2.57,1.84,3.3,0,2.4.47,4.69.28,6.85-.56.72-.28,2.07-.27,2.89-.48Z"/>
      <path class="cls-120" d="M271.15,113.51c-.51-.46-1.26-.8-1.69-1.45-.51,1.61,2.19,4.82,3.52,5.76,4.57,3.21,8.04,2.86,13.39,2.9,4.97.04,10.71-2.08,14.21-1.91,1.6.63,2.17,1.52.54.54-.09-.06-.09-.27-.05-.54,1.71.81,3.36-1.81,3.73-1.91,2.29-.61,6.32-1.59,8.6-1.92,5.93-.86,11.18,3.15,1.77,4.18-6.99.77-13.97,1.4-20.9,2.76-1.42.28-1.33,1.18-2.1,1.27-1.86.22-4.13-.23-6.05-.03.35.91,2.8,1.02,3.61,1,2.56-.07,9.99-.34,11.93-1.04,2.48-.9,2.22-.71,5.2-.93.28,1.54-.77.8-1.66.97-4.87.95-12.56,2.31-17.4,1.93-1.66-.13-2.35-.62-3.62-1.45-.53-1.09-1.15-1.8-2.41-1.93-5.37-.28-9.77-2.2-12.56-6.98-.8-1.37-2.38-3.25-.7-4.6,1.74.28,2.71,1.61,2.64,3.38Z"/>
      <path class="cls-150" d="M288.03,184.92c-13.06,10.48-22.87,25.12-26.05,41.98-.52,1.7-.84,3.47-.96,5.31-.02.16.02.32,0,.48-.75,1.56-1.23,3.33-1.45,5.31-.62,4.55-1.66,8.99-2.41,13.51-.49,1.38-.81,2.83-.96,4.34-.93,7.23-3.28,11.47-7.24,17.37-.15.21-.31.2-.48,0l-.24-1.42c2.03-3.45,3.97-7.01,5.04-10.89l-.45-.71c.89-5.32,1.69-10.63,2.41-15.92-.08,2.97.1,5.97.02,8.95-.03,1.15-1.4,3.99.46,3.6-.44-4.91,1.46-9.6,2.29-14.35.68-3.87,1.3-7.65,2.03-11.48,2.7-14.25,9.29-29.96,20.26-40.54,1.37-1.32,7.42-5.14,7.75-5.51Z"/>
      <path class="cls-85" d="M124.48,240.41c.34-.18.64-.29.8-.19,7.36,4.64,17.67,19.47,14.06,28.37-.33.8-.62,1.44-1.35.77.04-7.54-1.87-14.41-6.75-20.26-1.51-1.4-5.71-6.75-7.24-5.31.31,4.48.63,8.98.96,13.51.5,3.31.9,6.63,1.2,9.97l-.67-.13c-2.75-7.34-4.06-15.12-3.92-23.35-.52-.88-1.08-2.06-.48-2.89.05.1.59.19.72.49.43,1.02-.26,2.59.97,2.4l1.69-3.37Z"/>
      <path class="cls-91" d="M374.4,176.72c.1,2.13.26,4.22.48,6.27.45,5.49-.08,11.07.49,16.64.11,1.05.69,4.98,1.19,5.56,1.01,1.18,7.15.04,9.07.49.27.06,3.93,1.53,4.94,1.9,2.54.93,4.92,2.57,7.46,2.91.53-.48-5.92-11.71-6.75-12.65-1.9-2.17-6.11-4.8-8.69-6.17-.28-.14-.28-.31,0-.48,2.46-.67,6.28,2.27,8.24,4.02.95.85,1.83,1.75,2.66,2.73.96,1.14,8.29,13.82,8.29,14.66-.02,2.82-2.11,2.07-3.79.96-5.83-4.75-13.9-6.55-21.33-6.18-.38.02-.66-.36-.83-.76-1.33-5.01-1.17-9.91-1.45-14.96-.28-.74-.76-.74-1.45,0-.04.23-.73.84-.49,1.45-1.32,1.16-1.72-3.56-1.93-4.34-.03-.46,0-.64.48-.48l.68.09c-.09-1.21.12-2.29.62-3.23l-.31-10.24c.19-.93.73-1.36,1.42-.61.5.72.75,1.57.96,2.41Z"/>
      <path class="cls-160" d="M373.43,163.69c-.89,1.07-3.72,4.45-3.88,5.58-.21,1.42,1.07,2.18,1.03,3.8-.05,1.76-1.42,4.06-1.31,6.23.06,1.28.96,4.42,1.28,6.1,1.37.87,1.65,1.68.48,2.89l-.48.48c-.43-1.65-.64-2.71-.96-4.34-1.19-.18-1.16-2.66-.96-3.86-.02-.16.02-.32,0-.48-.86-1.1-.82-2.74,0-3.86.01-.16,0-.32,0-.48.64-1.97.17-2.06-1.48-.91l-.45-.53c-.07,0-.11-.61-.48-.48,1.37,4.71-1.83,6.05-4.64,8.86-4.37,4.37-8.42,7.33-12.99,11.42-12.91,11.55-17.33,21.99-9.88,39.07-6.38-7.37-5.43-21.22-.4-29.11,4.75-7.46,16.66-16.94,23.56-23l.02-1.14c2.17-.57,3.71-4.12,2.4-5.13,2.55-5.09,5.03-6.87,8.68-11.1h.48Z"/>
      <path class="cls-114" d="M136.54,148.73c.2.5.31,1.04.15,1.57-.31,1.05-6.14,8.06-7.38,9.45-.58-.02-1.07.15-1.46.56-7.56,12.21-12.09,26.22-10.11,40.75.16,1.17.75,5.32.94,6.06-.39-2.19-1.52-4.73-1.87-7.05-2.63-17.32,6.45-40.29,19.72-51.33Z"/>
      <path class="cls-63" d="M268.74,426.65c-1,.96-2.25,1.3-3.62,1.45-6.15.66-13.81-.8-19.81-.04-.92.12-.46.92-1.38,1.04-5.49.7-11.88.09-17.4.45-7.93.52-16.45,1.99-24.37,1.93,2.27-.55,5.19-1.26,7.49-1.44,8.03-.62,17.35-.27,24.69-1.93,4.15-.94,10.51-.23,14.89-.47,6.5-.36,12.99-1.32,19.52-.98Z"/>
      <path class="cls-136" d="M439.05,99.04c14.98,13.35,35.12,21.01,54.52,25.09.42.14.42.3,0,.48-2.88-.53-7.28-.8-9.8-1.43-.49-.12-.43-1.12-1.13-1.38-1.67-.61-5.32-1.03-7.13-1.57-10.33-3.07-26.56-10.72-34.31-18.28-.88-.86-1.5-1.9-2.15-2.92Z"/>
      <path class="cls-142" d="M375.36,265.5c.14-.42.3-.42.48,0,.24,1.8.56,3.56.96,5.31,0,.16,0,.32,0,.48.46,5.03.68,10.66-.96,15.44-1.05,5.16-3.98,10.66-9.17,12.54-2.04.72-7.64,1.33-5.81-2.03,2.17-.02,4.25-.36,6.29-.87,3.28-2.52,5.53-5.9,6.75-10.13,1.67.14,1.3.18,1.44-1.19.66-6.11,1.57-8.2.03-14.52-.15-.62.11-1.94-.03-2.15-.11-.16-1.38,1.35-2.89-1.44.1-1.04.58-1.53,1.45-1.45.06-.04,1.02.7,1.45,0Z"/>
      <path class="cls-152" d="M297.68,265.98c.36.14.35.3,0,.48-1.1,2.59-4.18,4.07-6.1,5.96-5.66,5.56-11.88,12.86-16.54,19.03-3.34,4.41-6.35,8.95-9.2,13.61,7.03-14.96,19.56-28.36,31.84-39.08Z"/>
      <path class="cls-129" d="M361.37,154.04c3.35-2.22,7.05-3.76,10.29-5.88,3.42-2.23,6.51-6.19,9.61-8.95,2.21-.66,3.13,1.58,3.28,3.46.89,10.84-5.18,13.85-11.12,21.01h-.48c1.98-2.3,4.78-5.04,6.48-7.27.6-.78,4.13-7.02,4.13-7.45v-8.44c-3.7-.74-5.66,3.88-8.24,6-4.24,3.48-9.9,5.25-13.96,8-.34-.14-.34-.3,0-.48Z"/>
      <path class="cls-36" d="M21.71,224.48c16.91,5.95,31.01,10.61,47.28,18.33.29.14.28.3,0,.48-8.8-4.01-19.5-8.84-28.36-11.92-6.54-2.27-12.42-4.13-18.92-6.41v-.48Z"/>
      <path class="cls-55" d="M68.99,242.82c3.14,1.49,11.9,6.5,14.45,7.02,4.03.83,7.33.22,11.64,1.39,6.01,1.63,10.36,3.27,14.93,7.51-6.22-3.03-10.69-6.23-18.07-7.26-2.37-.33-7.24.61-9.12-.05-.62-.22-.84-1.25-1.63-1.75-2.97-1.87-8.91-4.89-12.19-6.38v-.48Z"/>
      <path class="cls-53" d="M250.88,364.4c8.25-.72,20.44-3.78,27.67,2,5.26,4.21,4.72,9.55,3.76,15.52,1.71,1.73,3.49,2.94,5.24,4.67h-.96c-1.33.68-4.62-1.92-3.86-3.38-1.04-1.17-1.59-.75-1.45-2.89-.43-.12-.52-.35-.47-.75,1.88-14.27-8.89-14.86-20.2-14.41l-10.41,1.09-.76-.89c-.46-.39.02-.71,1.45-.96Z"/>
      <path class="cls-121" d="M149.57,321.46c-.15.25-.31.24-.48,0-4.09-5.66-7.58-11.2-11.07-17.15-5.87-9.98-11.21-19.95-15.46-30.61,4.73,6.63,7.24,14.77,11.07,21.98,4.31,8.11,10.58,18.36,15.94,25.79Z"/>
      <path class="cls-48" d="M358.47,254.4c.92.18,2.07.99,2.72,1.62,8.35,8.02,13.9,18.43,12.72,30.22-.27,2.69-2.88,8.06-5.05,9.69-.73.55-1.35.28-1.71.44-.42-.14-.42-.3,0-.48.4-.2,3.41-3.61,3.78-4.18,8.33-12.99-4.01-28.24-12.47-37.31Z"/>
      <path class="cls-30" d="M264.39,208.08c-1.1,2.49-2.11,5.24-3.05,7.81-3.45,9.4-4.66,18.05-6.12,28.38-.88,6.26-.43,9.8-2.41,15.92.77,1.37-1.01,6.65-2.89,6.75-.15.25-.31.25-.48,0,5.8-10.26,4.55-23.04,6.34-34.43,1.51-9.63,3.59-15.31,7.65-23.95.36-.58.68-.74.96-.48Z"/>
      <path class="cls-11" d="M268.25,87.94c-.74.54-1.7.54-2.89,0-7.68-.24-17.81-.6-25.33,0-4.86.39-8.81,2.37-14.24,2.89,2.02-.92,3.59-.57,5.04-1.97,12.36-1.91,25.05-3.69,37.42-.92Z"/>
      <path class="cls-121" d="M149.57,321.46c2.94,4.07,7.28,9.53,10.61,13.27,6.64,7.45,12.22,8.58,20.23,13.55,2.22,1.38,4.07,3.09,5.83,5.03h-.48c-4.2-3.31-8.9-6.25-13.39-8.69-2.07-1.12-5.28-1.95-6.9-3.1-4.14-2.94-13.04-15.44-16.37-20.05h.48Z"/>
      <path class="cls-22" d="M186.23,353.31c4.46,2.81,11.15.92,15.71,2.37,10.35,3.29,15.02,2.81,26.03,2.93.82,0,2.15-.31,2.65.49-4.26-.2-8.99-.1-13.29-.02-8.56.15-13.54-1.5-21.3-3.34-2.16-.51-5.84.52-8.01-.11-1.1-.32-1.62-1.8-2.27-2.31h.48Z"/>
      <path class="cls-74" d="M258.12,25.7c-1.35,1.58-4.25,1.75-6.13,2.56-.23.1-.33.89-.96,1.19-6.18,2.92-7.07.16-12.45.6-2.67.22-7.81,1.62-9.9,2.89-3.63,2.2-2.18,4.32-2.41,8.2-.6-1.99-.91-5.56-.05-7.53,1-2.28,8.87-4.31,11.39-4.53,3.86-.34,8.53,1.26,11.92-.05,2.85-1.1,5.27-2.44,8.58-3.34Z"/>
      <path class="cls-132" d="M347.86,136.67c4.18,5.83,6.01,5.97,5.5.43l.77.05c.64.2.58.56,0,.96-.14,2.91.18,5.64.96,8.2,3.22,1.75,5.7,9.44,1.18,3.94l-.7-.56c-1.14-1.09-1.11-1.21-1.93-2.41-3.2-3.63-6.26-7.33-9.17-11.1,1.66.14,1.54.11,1.45-1.45,1.39-.67,2.6.54,1.93,1.93Z"/>
      <path class="cls-117" d="M157.77,415.07c12.06,3.27,24.63,8.93,35.85,13.84,1.78.78,4.7.75,5.65,2.56-2.54-.28-4.97-1.53-7.33-2.46-9.51-3.75-19.38-8-28.74-11.98-1.67-.71-3.91-.79-5.42-1.96Z"/>
      <path class="cls-41" d="M275.01,98.56c-10.27-1.98-18.12-2.16-28.47-.96-1.57.36-3.18.52-4.82.48-5.07.73-9.83,2.09-14.47,3.38,1.67-2.54,2.46-1.47,4.56-1.95,14.89-3.4,28.24-5.16,43.2-.94Z"/>
      <path class="cls-21" d="M361.37,133.29c.37.67,2.41,4.32,2.41,4.58v9.41c.94-.1.94-1.94.99-2.63.49-7.29-1.24-15.19-6.29-20.53-.26-.15-.26-.31,0-.48,4.2,4.56,6.66,8.14,7.26,14.7.17,1.81.56,9.37-1.3,9.85-2.63.68-1.07-4.3-1.13-5.95-.1-2.43-1.3-6.41-1.93-8.94Z"/>
      <path class="cls-137" d="M112.42,222.07c1.84,4.95,2.56,7.16,5.79,11.58-.14.31-.3.31-.48,0-3.65-3.76-6.01-7.57-6.28-13.02l-.49,4.11c.44,3.18,3.02,7.86,5.06,10.38s3.37,2.21,5.09,5.77c.13.97.31,1.93.48,2.89-.14.42-.3.42-.48,0-1.42-6.38-9.86-10.54-10.61-17.37l-.42-7.02c.25-.57.73-.87,1.31-.62l1.03,3.3Z"/>
      <path class="cls-67" d="M385.49,246.68c1.47-.28.85.71,1.03,1.6,1.97,9.43.9,20.55-3.79,29.15-2.37,4.35-3.56-1.71-1.1-3.73v.48c-.1.99-.9,4.7.69,2.38.7-1.02,3.3-9.26,3.61-10.86,1.34-6.73.06-12.42-.44-19.02Z"/>
      <path class="cls-126" d="M248.95,273.21c-2.89,4.32-8.84,12.25-14.27,12.99-3.69.5-7.71-1.29-10.25,2.29-6.89,9.71-2.82,30.93,10.05,32.97.42.14.42.3,0,.48-1.54,1.65-5.64-.72-7.28-1.97-8.28-6.28-10.03-22.59-5.1-31.35,1.14-2.03,2.68-3.18,4.98-3.6,3.63-.05,7.09-.58,10.37-1.58,3.74-2.87,6.84-6.59,9.84-10.22l1.2-.02h.48Z"/>
      <path class="cls-130" d="M235.93,280.93c.6.75-.72,1.02-1.5,1.16l-8.15.28-.05,1.08c-8.35,4.56-9.05,17.49-7.01,25.85l-.66,1.05c.36.92.36,1.57,0,1.93-4.11-8.17-3.02-23.08,4.38-29.16,3.62-2.97,8.87-.91,12.99-2.21Z"/>
      <path class="cls-147" d="M186.72,108.2l-4.03,3.68c-8.23,4.65-14.95,11.68-22.02,17.54,8.43-9.82,15.2-14.44,26.05-21.23Z"/>
      <path class="cls-108" d="M343.52,121.71c5.73,2.84,9.98,6.67,10.61,13.51.43.9.43,1.54,0,1.93-1.15.87.38,5.76-1.68,5.3-1.13-.25-3.62-4.66-4.59-5.79.48-1.53,1.67-.62,2.45.42,2.31,4.2,2.34,3.05.08-3.47l.84-.81c-.22-.15-.22-.31,0-.48l1.44,1.93c.33-4.13-3.57-8.17-6.77-10.35-.75-.51-2.1-.63-2.31-.86-.3-.33,0-1.21-.09-1.33Z"/>
      <path class="cls-117" d="M108.56,373.09c-.14.3-.3.29-.48,0-6.84-11.22-16.79-24.51-25.09-34.26h.48c8.89,10.85,17.75,22.4,25.09,34.26Z"/>
      <path class="cls-138" d="M137.99,147.77c2.59-1.59,3.55-.21.96,1.45-2.24,3.19-5.04,6.07-7.24,9.17-.67,1.44-1.47,2.41-2.41,2.89v-1.45s-1.45.48-1.45.48c2.73-4.42,6.15-7.31,8.68-11.58.42-.35.98-.65,1.45-.96Z"/>
      <path class="cls-106" d="M377.29,188.3c-.24-.36-1.3-.4-.96-1.44,2.95-.31,6.23.55,8.82,1.93,7.96,4.23,10.36,9.14,14.82,16.4-.14.42-.3.42-.48,0l-1.58-.76c-4.36-7.73-11.71-14.79-20.61-16.12Z"/>
      <path class="cls-173" d="M399.97,205.18c1.76,2.87,3.92,5.14,5.94,7.54,1.27,1.52,2.93,1.14,1.78,4.04-.48.56-.75.76-.96,0,.21.03.39.08.44.19.76,1.54-3.97,1.03-4.78.78-4.57-.89-7.17-4.4-10.75-6.42-1.72-.97-13.5-3.54-14.34-2.74.07.97.31,1.93.48,2.89-.05-.09-.69-.18-.88-.8-.24-.8-.07-1.74-.09-2.57-.25-.42-.25-.8.1-.83,4.88-.44,11.48,1.1,15.88,3.14,3.95,3.09,8.26,4.88,12.95,5.39l.99.99c-.8-.55-1.47-1.46-2-2.74l-3.81-3.78c-1.12-1.27-3.14-3.85-1.43-5.05h.48Z"/>
      <path class="cls-88" d="M218.56,310.37l1.15.27c4.88,11.75,18.33,16.24,29.41,10.16l.81.66c-3.99,2.62-3.8,3.05-9.17,3.38-2.2.56-4.6.86-6.75,0-6.39-.54-12.63-6.96-15.44-12.54v-1.93Z"/>
      <path class="cls-112" d="M139.92,260.67c.29,2.08.23,4.19,0,6.27-.29,1.75.07,1.61-.96,3.38-1.08,1.73-2.22.46-.96-.48v-.48c2.04-.8,1.68-5.13,1.46-7.01-1.04-8.96-7.99-17.16-14.97-21.94-.82-.56-.8-.36-.96-1.45.04-.81.2-1.45.48-1.93,1.2,3.56,4.54,4.5,6.77,6.98,3.81,4.24,7.94,11.09,9.15,16.66Z"/>
      <path class="cls-164" d="M318.43,109.17c6.08,1.79,11.87.19,17.96,1.97.41.12.37.8,1.03,1,7.22,2.15,10.11,2.55,16.22,7.16v.48c-4.77-3.38-11.9-6.04-17.74-7.59-1.78-.47-5.82-1.44-7.59-1.57-3.03-.22-8.16,1.13-9.88-1.45Z"/>
      <path class="cls-99" d="M128.82,404.93c-9.12-4.29-15.67-23.52-20.75-31.84h.48c7.06,11.42,10.07,21.77,20.26,31.84Z"/>
      <path class="cls-62" d="M121.58,243.78c.85,4.76.97,10.19,1.56,15.08l2.77,8.07c.64-2.03-.75-3.43-.99-5.04-.19-1.33.07-3.16.03-4.61.48,2.3,1.13,4.38,1.45,6.75.32,2.1.32,4.19,0,6.27-.1.28.04,1.94-.96.96-.63-.61-.36-3.86-.6-4.95-.42-1.87-1.7-3.79-2.17-6.03-1.13-5.36-.47-11.53-1.58-16.51h.48Z"/>
      <path class="cls-129" d="M305.89,172.38c.31,1.17-1.67,1.41-2.43,1.67-10.54,3.54-17.13,6.41-25.31,14.26-1.18,1.13-1.93,3.07-3.62,3.86-.18-1.24,1.35-3.01,2.41-3.86,3.96-4.81,11.59-10.07,17.37-12.06,3.81-1.99,7.67-3.27,11.58-3.86Z"/>
      <path class="cls-71" d="M145.22,270.8c-.15.25-.31.25-.48,0l-.29-.79c2.34-4.48,2.46-9.64,1.66-14.53.47-1.29.5-2.77.07-4.45-.59-2.36-4.14-11.78-5.31-13.51,6.13,10.62,10.93,21.32,4.34,33.29Z"/>
      <path class="cls-66" d="M259.09,313.74c-2.55,3.36-8.27,6.64-12.47,8.01-3.43,1.12-9.26,2.37-12.13.19v-.48c8.28,1.31,18.85-4.1,25.2-9.16,1.2-.96,3.8-3.58,4.72-4.83,1.44,2.3-2.59,6.42-5.31,6.27Z"/>
      <path class="cls-27" d="M153.91,136.67c-6.04,8.19-14.95,19.07-19.3,27.5,3.22-6.16,5.88-10.81,10.13-16.4,1.03-1.66,2.15-3.27,3.38-4.82,2.1-2.51,3.38-4.4,5.79-6.27Z"/>
      <path class="cls-155" d="M268.25,87.94c5.07.28,10.96,2.15,15.92,3.62,1.38.41,6.54,1.91,7.24,2.65-7.94-1.74-16.24-4.09-23.75-5.44-.78-.14-1.74-.23-2.31-.84.96.03,1.94-.05,2.89,0Z"/>
      <path class="cls-82" d="M309.26,170.93c1.71-.6,6.31-2.01,6.27.48-1.64,2.31-5.25,2.37-7.62,3.24-3.92,1.44-6.49,2.85-9.87,4.59-1.96,1.01-4.16,1.82-6.16,2.78,7.02-4.21,10.23-5.38,17.74-8.54.67-.28.57-1.13,1.51-1.38,1.13-.3,2.28-.23,3.43-.21.11-.84-1.1-.45-1.68-.48-1.1-.05-2.56-.11-3.62,0-.42-.14-.42-.3,0-.48Z"/>
      <path class="cls-94" d="M318.43,252.47c-6.73,3.54-11.62,7.4-17.62,12.05-.97.75-2.02,1.42-3.13,1.94v-.48c5.09-4.44,11.05-10.06,17.37-12.54,1.17-.96,2.29-1.28,3.38-.96Z"/>
      <path class="cls-162" d="M249.92,266.94c.1.32.18.64.2.97.08,2.09-5.37,8.27-7.1,10.1-3.01,3.17-5.49,4.82-9.72,5.37-1.85.24-6.01.44-7.02-.99,3.04-1.02,5.65.01,8.45-.49,1.03-.18,1.04-.87,1.2-.96,4.25-2.27,11.11-9.74,13.51-13.99h.48Z"/>
      <path class="cls-96" d="M268.74,305.06c.24,1.15-.46,1.47-.96,2.18-3.48,4.9-4.94,6.59-10.14,9.4-.27-.82.21-1.55,1.45-2.2v-.69c1.93-1.42,4.89-3.75,5.31-6.27.32-.43.73-.98.96-1.45,1.78,1.06-1.91,2.07,0,2.89.51-.62,2.1-3.33,2.42-3.61s.9-.18.97-.25Z"/>
      <path class="cls-91" d="M385.49,245.71l-1.97-4.57c2.52-6.76-.04-14.56-2.37-21,1.12,1.31,2.25,4.03,2.79,5.66,2.28,6.94.98,12.69,1.56,19.92Z"/>
      <path class="cls-125" d="M117.72,233.65h.48c2.42,3.3,1.45-2.84,1.45-4.34.4-6.9.28-13.75-.38-20.54l.38-.21c2.55,7.86.46,8.77.44,15.68,0,3.2,1.53,7.6.55,10.65-2.69,1.12-2.36-.65-2.93-1.24Z"/>
      <path class="cls-139" d="M110.49,208.08c.57.97,1.21,1.62,1.93,1.93-.19,4.12-.87,7.83,0,12.06-.12-.33-1.18-3.28-1.93-2.41.16,2.17-.24,4.63,0,6.75-1.46-5.68-.59-11.41-.5-17.17-.15-.47.48-1,.5-1.16Z"/>
      <path class="cls-47" d="M145.22,255.85c1.96,1.4,1.45,5.92,1.1,8.31s-1.1,4.73-2.56,6.74l.97-.1h.48c-.29.52-4.17,7.61-4.83,4.09-.18-.98,3.88-8.01,4.23-10.24.32-2.05.37-6.76.12-8.81.14-.42.3-.42.48,0Z"/>
      <path class="cls-57" d="M336.28,251.02c.09-.27-.29-.85.3-.99.8-.19,5.71-.14,6.72-.01.78.1.87,1.35,2.86,1.38,2.26.03,2.98-1.17,3.5-1.32,3.8-1.08,4.07-.11,6.3,1.88,1.06.94,1.23,1.11,2.03,1.96-1.92-.52-3.12-2.56-5.19-2.81-1.72-.21-4.24.82-6.13.9-1.65.07-2.4-.35-3.64-.5-2.28-.21-4.53-.37-6.75-.48Z"/>
      <path class="cls-68" d="M276.94,188.3c-.76.92-1.72,2.96-2.41,3.86-4.21,5.46-7.28,9.46-10.13,15.92l-.96.48c3.82-8.1,6.06-11.87,11.75-18.89.52-.64.69-1.37,1.76-1.37Z"/>
      <path class="cls-42" d="M436.63,182.99v.48c-.73-.68-13.83-1.92-16.5-2.56-2.23-.54-3.74-1.34-5.69-2.27,3.14-.22,5.89,1.99,8.97,2.37,5.86.73,7.33-1.18,13.23,1.97Z"/>
      <path class="cls-145" d="M493.57,124.13c2.94.62,5.98.86,8.93,1.44l14.71.97v.96c-1.66-.08-3.36.15-5.02-.05-6.23-.76-12.4-1.7-18.62-2.84v-.48Z"/>
      <path class="cls-54" d="M377.29,247.16c1.06.46,1.29,2.21,1.39,3.19.32,3.25-.08,6.78.06,10.08.02.59-.36,1.79.48,1.68,1.67-5.36.9-10.5,0-15.92.14-.42.3-.42.48,0,.17,2.26,2.63,17.37-.72,17.36-2.38-2.68-.54-6.5-.71-9.9-.08-1.77-.61-4.71-.98-6.49Z"/>
      <path class="cls-39" d="M381.63,245.71c-.7-.75-.65-2.17-1.93-1.93.03.8-.06,1.62,0,2.41h-.48c-.54-3.29-1.04-6-2.41-9.17.47-.83.95-1.63,1.45-2.41,1.17,3.63,2.33,7.38,3.38,11.1Z"/>
      <path class="cls-37" d="M290.45,280.45c-4.61,5.48-9.86,11.39-14.96,16.4,4.85-6.42,8.25-11.64,14.96-16.4Z"/>
      <path class="cls-150" d="M131.71,224c-.78-.79-2.5-2.01-3.36-3.27-4.02-5.93-2.46-10.54-.99-17,.24-.76.56-1.08.96-.96-.62,2.61-2.07,9.4-1.91,11.76s3.85,7.09,5.29,9.47Z"/>
      <path class="cls-135" d="M298.65,115.44c.42.14.42.3,0,.48-6.16,1.79-11.47,3.88-18.6,3.41-.9-.06-1.81.12-2.15-.99.16-.29.32-.29.48,0,7.81.38,13.05-1.08,20.26-2.89Z"/>
      <path class="cls-40" d="M357.03,158.38c-2.36,2.57-2.45,5.97-3.37,9.16,2.37.51,1.08-1.34,1.57-3.01.13-.44,1.28-3.52,1.42-3.66.23-.24.77,0,.87-.08-1.16,2.1-1.7,7.6-3.16,9.14-1.73,1.82-1.78-2.72-1.56-3.96.64-3.51,2.14-5.57,4.23-8.08v.48Z"/>
      <path class="cls-65" d="M122.06,185.89c-.4,4.02-.65,8.01-.48,12.06,1.9-1.85,1.24-5.5,2.89-7.72-.44,2.3-.64,5.08-1.09,7.36-.16.84-.45,2.92-1.32,3.25-.33-1.65-1.39-2.22-1.5-4.08-.13-2.3.42-6.54.53-9.21.04-.93-.5-1.94.96-1.67Z"/>
      <path class="cls-19" d="M128.34,202.77l-.96.96c1.75-7.65,4.43-14.81,7.72-21.71-2.15,6.67-5.15,14.04-6.75,20.75Z"/>
      <path class="cls-22" d="M231.59,359.1c2.9.19,6.25.79,8.98,1.86,4.3,1.68,4.61,3.94,10.32,3.45l-1.45.96c-.23,1.14-1.2,1.42-2.91.84-4.39-2.49-9.24-4.49-14.22-5.57l-.73-1.06v-.48Z"/>
      <path class="cls-165" d="M381.63,274.18c.02-.16-.02-.32,0-.48.43-3.33,1.65-6.56,1.92-9.9.37-4.58-.22-9.2-.47-13.74.11.3,1.11.91.94,1.7.29,7.57,1.17,15.45-2.39,22.42Z"/>
      <path class="cls-29" d="M367.16,295.89v.48c-1.91.87-3.51,1.64-5.79,1.45v1.44s5.31,0,5.31,0h.48c-1.9.69-2.61,1.34-5.04.94-1.79-.3-5.06-2.88-2.37-3.78,1.52-.51,4.69.82,7.41-.54Z"/>
      <path class="cls-37" d="M338.69,233.17c1.09,1.25,1.32,2.03,2.44,3.48,1.05,1.37,5.65,5.87,6,6.66,1.19,2.66.06,3.61-2.55,2.56-.55-.22-.52-1.02-.92-1.11-1.07-.24-5.92-.19-7.17-.04-.54.06-1.34,1.3-2.62,1.73-2.36.79-5.33,1.17-7.73,2.17-.62.15-.77.13-.48-.48,4.45-1.87,10.4-4.72,15.19-4.34,1.87.15,3.61,1.21,5.55.96.67-.61-6.6-8.35-7.27-9.87-.32-.72-.31-1.39-.44-1.71Z"/>
      <path class="cls-155" d="M131.71,170.93l-7.24,18.82c1.27-6.74,3.95-12.62,6.75-18.82.14-.31.3-.3.48,0Z"/>
      <path class="cls-81" d="M337.73,115.92c-3.23-.43-6.37-.65-9.65-.48,1.43,3.63,5.85,3.04,9.17,3.86-.8-.27-2.85.14-4.05-.05-3.22-.52-6.28-1.75-7.04-5.25,3.76.7,8.12.46,11.58,1.93Z"/>
      <path class="cls-25" d="M214.22,94.21c-.1.33.19,1.21-.03,1.41-.13.12-1.65.13-2.29.37-6.71,2.44-11.92,5.86-18.33,8.7-.85.38-1.47.85-2.51.63,6.13-3.63,16.55-9.65,23.16-11.1Z"/>
      <path class="cls-51" d="M373.43,174.31c-1.11.34-.93,1.25-.99,2.14-.29,4.25.67,10.06,0,14-.1.57-.29,1.14-.94,1.23.42-1.36-.32-2.48-.49-3.38-.18-.96-.3-1.94-.48-2.89l1.21.49c1.27-2.67-.81-9.77-.18-11.75.15-.47.6-.91,1.13-.8.39.21.5.63.73.96Z"/>
      <path class="cls-113" d="M131.23,249.09c5.21,4.84,7.57,12.96,6.75,20.26v.48c-.47,0-.71-.18-.66-.6l-.3-7.12c-.95-5.12-3.37-8.6-5.79-13.03Z"/>
      <path class="cls-157" d="M119.65,208.56c-.51,1.99.94,3.84.99,5.56.13,4.27-1.01,10.18-.99,15.18-.8-.5-.48-1.83-.49-2.65-.09-6.9.75-12.61-.47-19.55.02.08.62.38.96,1.45Z"/>
      <path class="cls-58" d="M361.85,181.06c.14-.77-.28-1.31-.48-1.93.39-.2.71-.52.96-.96.58-1.3,1.46-2.45,1.93-3.38,1.94-1.31,1.33,2.36,1,3.17-.85,2.12-2.37,2.19-3.41,3.1Z"/>
      <path class="cls-162" d="M371.5,160.31c3.57-4.06,6.3-6.92,9.17-11.58-.04.71.06,1.25-.13,2.02-.76,3.01-6.27,7.92-9.04,9.56Z"/>
      <path class="cls-161" d="M138.47,240.89c2.7,4.23,4.12,6.96,6.27,11.58.16.99.37,2.02,1.03,2.81l-.55.56h-.48c-.49-3.97-4.58-11.42-6.75-14.96.15-.26.31-.26.48,0Z"/>
      <path class="cls-43" d="M344.48,136.19c3.33,3.23,6.51,7.19,9.17,11.1-3.74-3.2-6.7-7.67-10.13-11.1v-.48c.22.2.75.28.96.48Z"/>
      <path class="cls-20" d="M309.26,170.93v.48c-.89.09-2.41.73-3.38.96-3.43.83-7.78,2.55-11.58,3.86,5.11-2.57,9.2-4.63,14.96-5.31Z"/>
      <path class="cls-117" d="M120.62,270.32c-3.5-3.76-6.75-7.99-10.61-11.58,2.65,1.29,6.54,5.3,8.46,7.7.78.97,1.58,2.72,2.15,3.88Z"/>
      <path class="cls-55" d="M298.17,73.95c1.17-.04,3.1.25,4.05-.07.76-.26.5-1.95,2.38-1.39.48.14.42,1.12,1.12,1.38,1.12.41,3-.21,4.03,1.05-4.4-.57-8.38-.43-12.79-.47-.81,0-2.14.31-2.65-.49,1.28.02,2.58.05,3.86,0Z"/>
      <path class="cls-59" d="M112.42,209.53c0,.16,0,.32,0,.48-1.98.93.2,5.02-1.93,4.82.34-1.71-.47-5.37,0-6.75l.53-.98c-.04-.95,1.07-3.43,1.72-2.22l-.33,4.65Z"/>
      <path class="cls-86" d="M141.36,145.36c.91-1.35,3.45-1.05,2.41.96-.81.8-3.63,2.38-4.82,2.89.21-.3,1.08-1.36.96-1.44h-1.93c.9-.62,1.63-2.08,3.38-2.42Z"/>
      <path class="cls-55" d="M128.82,404.93c2.03.96,3.23,2.18,5.66,2.78,3.05.75,4.76.91,7.85,2.04-3.03-.56-7.92-.96-10.63-2.16-.97-.43-2.06-1.86-2.88-2.66Z"/>
      <path class="cls-128" d="M124.96,257.29c-.79-3.79-.85-5.54-.97-9.4-.04-1.31-1.19-2.98,0-4.11,1.36,4.4.82,8.98.96,13.51Z"/>
      <path class="cls-104" d="M375.84,288.17c-.3-.22-.3-.7,0-1.45.84-5.4,1.16-9.92.96-15.44.8.5.48,1.83.49,2.65.06,4.71.56,9.91-1.46,14.24Z"/>
      <path class="cls-15" d="M354.13,135.22c1.98,2.94.22,7.07,1.18,10.16.72,2.32,4.87,4.44,4.13,7.69-1.88.18-3.13-1.83-3.86-3.37.07.06.6-.03.94.25.64.54.93,1.65,1.71,2.16.65-2.33-1.92-3.49-3.14-5.79-.76-2.56-1.08-5.29-.96-8.2-.01-.32.01-.64,0-.96-.02-.64.06-1.3,0-1.93Z"/>
      <path class="cls-102" d="M110.49,208.08c.32-2.02.38-5.5,2.89-5.79l-.96,7.23c.05-1.44-.03-2.9,0-4.34-.72.04-.7,1.4-1.02,2.13-.18.42-.88.69-.9.77Z"/>
      <path class="cls-6" d="M313.12,121.23c.5-.8,1.83-.48,2.65-.49,2.67-.03,7.83-.43,10.13.02.48.09,2.25,1.25,2.54,1.6.32.4.06,1.21.13,1.29-.61-.45-1.98-1.68-2.25-1.83-1.84-1.02-9.62-.64-12.22-.58h-.96Z"/>
      <path class="cls-27" d="M123.99,237.03c-.02.71.12,1.38-.48,1.93-.54-3.63-.19-11.49.96-14.96.08,4.36-.34,8.68-.48,13.03Z"/>
      <path class="cls-49" d="M153.43,151.15c-2.43,3.13-4.92,6.53-7.24,9.65,1.87-3.23,3.82-7.81,7.24-9.65Z"/>
      <path class="cls-107" d="M365.71,168.52c-1.07,2.55-3.95,6.59-4.36,8.91-.2,1.14-.12,1.58.98.74-.19.43.47,1.24-.96.96-1.26-3.9,1.92-8.07,4.34-11.1v.48Z"/>
      <path class="cls-143" d="M361.37,133.29c-2.26-4.1-4.35-6.5-7.72-9.65,1.09-.18,1.47.35,2.19.95,2.6,2.15,4.75,5.53,5.53,8.7Z"/>
      <path class="cls-37" d="M275.01,98.56c1.91.54,6.35.55,8.74,1.17.71.18,1.37,1.54,2.36,1.73-3.61-.92-7.42-2.19-11.1-2.89Z"/>
      <path class="cls-134" d="M300.1,105.79c.66.55.95.84,0,.96-.96-.42-1.08-.82-1.34-.93-2.8-1.17-6.24-1.69-8.79-3.41,3.88.93,6.39,1.72,10.13,3.38Z"/>
      <path class="cls-171" d="M140.88,237.51c-1.68-2.5-3.93-5.21-5.79-8.2v-.48c2.98,2.09,4.06,5.69,5.79,8.68Z"/>
      <path class="cls-14" d="M291.41,94.21c2.87.63,5.84,2.5,8.68,3.86.32.14.31.3,0,.48-3.45-1.58-6.09-1.57-8.68-4.34Z"/>
      <path class="cls-78" d="M160.66,129.43c-2.15,2.5-4.08,5.16-6.75,7.24,2.75-3.73,3.18-4.27,6.75-7.24Z"/>
      <path class="cls-38" d="M275.49,296.86c-1.9,2.52-3.65,4.89-5.79,7.24.61-2.08,2.98-5.38,4.57-6.79.4-.36,1.13-.35,1.22-.45Z"/>
      <path class="cls-170" d="M336.28,129.92c3.88,2.1,4.35,3.1,7.24,5.79v.48c-1.97-1.97-4.99-4.15-7.24-6.27Z"/>
      <path class="cls-21" d="M365.71,168.52c.06-.14-.05-.34,0-.48,1.38-3.6,2.37-3.94,4.82-6.75.21,1.12-.4,1.47-.95,2.18-1.33,1.72-2.42,3.56-3.87,5.05Z"/>
      <path class="cls-7" d="M300.1,98.07c2.34,1.12,5.13,1.24,6.75,3.86-2.37-1.13-4.4-2.3-6.75-3.38v-.48Z"/>
      <path class="cls-60" d="M257.64,316.64c-2.44,2.54-4.35,3.38-7.72,4.82,1.32-2.34,5.1-4.62,7.72-4.82Z"/>
      <path class="cls-26" d="M221.94,91.8h.48c-.47.57-1.21,1.02-1.92,1.22-2.01.58-4.38.78-6.29,1.19.28-.86,6.58-2.24,7.72-2.41Z"/>
      <path class="cls-115" d="M315.53,171.41c-.66-1.54-4.56-.68-6.27-.48,1.22-1.25,8.48-2.62,6.27.48Z"/>
      <path class="cls-94" d="M326.15,248.61c-2.15.89-4.42,2.01-6.27,2.89-.42-.14-.42-.3,0-.48,1.98-.97,3.55-1.95,5.79-2.89l.48.48Z"/>
      <path class="cls-144" d="M137.99,269.84c.08.23-.06.66,0,.97l.96-.48c-.34.57-1.16,2.86-1.85.65s.32-6.44-.08-8.85c.5,2.71.16,5.36.96,7.72Z"/>
      <path class="cls-93" d="M133.64,234.62c.18.37,3.68,4.48,4.82,6.27h-.48c-1.31-2.14-2.99-4.12-4.34-6.27Z"/>
      <path class="cls-34" d="M266.32,67.68c-.45-1.22,2.16-1.52,2.67-1.47.37.03,2.46,2.04,3.12,2.44-2.05-.73-3.59-1.04-5.79-.96Z"/>
      <path class="cls-76" d="M290.45,398.18v-7.24c.71,2.02,1.21,2.55.99,5.09-.16,1.88-.35,1.25-.99,2.14Z"/>
      <path class="cls-151" d="M375.84,288.17c-.54,4.33-4.5,9.57-8.68,11.1h-.48c5.45-2.39,6.92-7.52,9.17-12.54-.07.45.06.98,0,1.45Z"/>
      <path class="cls-44" d="M141.85,168.52c1.63-3.34,1.87-4.39,4.34-7.72-1.37,2.37-2.98,5.19-4.34,7.72Z"/>
      <path class="cls-46" d="M281.76,121.71c2.87.15,5.8-.11,8.68,0,.11.84-1.09.46-1.68.48-1.82.07-4.25-.84-4.59,1.45-.82-.54-1.23-1.62-2.41-1.93Z"/>
      <path class="cls-119" d="M306.37,266.46c-5.27,4.24-10.36,10.05-15.92,13.99,4.34-5.16,10.37-9.87,15.92-13.99Z"/>
      <path class="cls-140" d="M317.95,258.74l-3.74,3.39c-.71.56-1.84.62-2.53.96,2.56-1.96,2.8-2.85,6.27-4.34Z"/>
      <path class="cls-137" d="M358.47,123.64v.48c-1.99-.95-3.03-3.08-4.82-4.34v-.48c2.56,1.93,2.69,2.03,4.82,4.34Z"/>
      <path class="cls-171" d="M377.29,188.3c1.89-.19,5.25.82,5.31,2.89v.48c-2.63-1.39-3.24-.32-5.31-3.38Z"/>
      <path class="cls-69" d="M141.85,168.52c-1.12,2.08-2.29,4.18-3.38,6.27-.32-2.24,1.36-4.08,2.41-5.93.25-.44.94-.3.97-.34Z"/>
      <path class="cls-44" d="M331.46,252.95c-2.06,1.51-4.9,1.75-7.11,2.76-1.04.47-2.74,1.76-4.46,2.55l3.24-2.77c2.87-1.43,5.52-1.81,8.34-2.54Z"/>
      <path class="cls-9" d="M131.71,170.93h-.48c1.07-2.35,2.19-4.48,3.38-6.75-.84,1.63-.97,5.02-2.89,6.75Z"/>
      <path class="cls-146" d="M328.56,123.64c.24.26,4.51,2.61,5.79,3.86v.48c-2.32-.73-3.96-2.98-5.79-4.34Z"/>
      <path class="cls-80" d="M258.12,68.64c-.14.01-.79.46-1.63.52-2.66.19-6.46.19-8.98-.52,3.51.19,7.1-.14,10.61,0Z"/>
      <path class="cls-18" d="M126.89,168.52c.75-2.19,1.3-5.11,2.41-7.24.3-.58,1.95-2.25,2.41-2.89l-4.82,10.13Z"/>
      <path class="cls-171" d="M361.37,154.04v.48c-.61.41-3.8,3.27-4.34,3.86v-.48c.65-.78,1.26-1.96,1.98-2.61.87-.77,1.73-.83,2.36-1.25Z"/>
      <path class="cls-118" d="M135.09,228.83v.48c-1.11-1.78-2.28-3.49-3.38-5.31,1.34,1.35,3.36,2.74,3.38,4.82Z"/>
      <path class="cls-159" d="M343.52,121.71c-.15-.2-3.74-.81-4.84-1.2-.89-.32-1.34-1.18-1.43-1.21,2.3.57,4.23,1.4,6.27,2.41Z"/>
      <path class="cls-90" d="M240.75,324.84c-1.99.98-4.93,1.56-6.75,0,1.98.17,4.75.12,6.75,0Z"/>
      <path class="cls-98" d="M242.2,67.68c-2.02-.74-3.91-2.25-5.31-3.86.6.83,5.23,2.14,5.31,3.86Z"/>
      <path class="cls-14" d="M312.64,105.31c-.28-.13-.98-.09-1.71-.44s-3.57-1.91-3.6-2.93c2.12.97,3.64,1.74,5.31,3.38Z"/>
      <path class="cls-27" d="M300.1,105.79c1.51.67,1.06.62,1.96,1.15,1,.59,2.38.52,2.86,1.74-1.45-.65-3.24-1.24-4.82-1.93v-.96Z"/>
      <path class="cls-77" d="M375.84,265.01v.48h-.48c.42-2.51-1.55-4.16-.96-6.75.73,2.63,1.11,3.3,1.45,6.27Z"/>
      <path class="cls-10" d="M311.68,263.08c-1.71,1.31-4.25,2.53-5.31,3.38,2.07-1.53,2.7-2.12,5.31-3.38Z"/>
      <path class="cls-13" d="M127.85,225.45c2.37,2.67,1.78,2.68,3.38,5.31-1.12-1.81-2.31-3.27-3.38-5.31Z"/>
      <path class="cls-54" d="M371.02,250.06c-.44-.91-4.25-2.92-3.38-5.31,1.15,1.78,2.32,3.46,3.38,5.31Z"/>
      <path class="cls-23" d="M141.36,145.36c-.29-1.49,1.77-1.42,2.89-1.45.01,1.01.27,1.66-.48,2.41.48-1.26-1.32-1.18-2.41-.96Z"/>
      <path class="cls-133" d="M373.43,255.36c-1.81-.81-1.85-4.14-2.41-5.31,1.27,2.23,1.56,2.97,2.41,5.31Z"/>
      <path class="cls-18" d="M124.96,174.79c-.68,2.26-1.15,4.71-2.41,6.75.29-1.81.74-3.55,1.22-5.32.22-.8-.06-1.7,1.2-1.43Z"/>
      <path class="cls-87" d="M261.02,232.69c-.22,1.8-.5,3.73-1.45,5.31.2-1.49-.33-5.56,1.45-5.31Z"/>
      <path class="cls-50" d="M135.09,182.03c.53-1.64.53-4.45,2.41-5.31-.85,1.68-1.58,3.57-2.41,5.31Z"/>
      <path class="cls-134" d="M312.64,105.31c1.66.78,2.62,1.21,3.86,2.89-3.17-1.43-1.8-.87-3.86-2.89Z"/>
      <path class="cls-51" d="M144.74,147.77c.18-2.27,2.23-3.45,3.38-4.82-.41,1.98-2.24,3.33-3.38,4.82Z"/>
      <path class="cls-8" d="M180.93,124.61l-4.82,3.38c2.13-2.08,2.23-1.86,4.82-3.38Z"/>
      <path class="cls-3" d="M319.88,251.02v.48c-.52.25-.94.7-1.45.96-.99.21-2.47.61-3.38.96,1.13-1.57,3.47-1.75,4.82-2.41Z"/>
      <path class="cls-56" d="M376.33,244.27c-1.52-1.41-1.78-3.62-2.41-5.31,1.38,2.37,1.61,2.7,2.41,5.31Z"/>
      <path class="cls-61" d="M127.85,225.45c-.99-1.12-1.79-2.37-2.89-3.38.96-2.3,2.74,3.08,2.89,3.38Z"/>
      <path class="cls-74" d="M228.69,44.03c.54,1.05,1.16,2.01,1.93,2.89-2.03-.3-2.6-2.33-3.38-3.86l1.45.96Z"/>
      <path class="cls-43" d="M379.7,145.84c2.07-1.49,2.39.16,1.84,2.1-.17.62-.81.68-.88.79.07-1.3.46-3.35-.96-2.89Z"/>
      <path class="cls-131" d="M161.14,141.98c-1.14,1.25-2.25,2.59-3.38,3.86-.11-1.7,1.84-3.49,3.38-3.86Z"/>
      <path class="cls-4" d="M376.81,270.8c-1.4-1.44-.81-3.55-.96-5.31-.01-.16.02-.32,0-.48.85,1.6.88,3.93.96,5.79Z"/>
      <path class="cls-2" d="M343.04,251.5c-2.26.23-5.07-.32-7.24,0,.1-.18.44-.35.48-.48,1.78.18,3.89-.25,5.6-.03.7.09,1.09.5,1.16.51Z"/>
      <path class="cls-84" d="M285.62,72.5c1.43.12,3.81-.66,3.38.96-1.43-.16-3.8.69-3.38-.96Z"/>
      <path class="cls-29" d="M407.69,216.76c-1.04,2.61-3.17,1.38-5.31.96h4.34c.03-.32-.02-.65,0-.96.32,0,.64,0,.96,0Z"/>
      <path class="cls-154" d="M261.02,232.2c.2-1.75-.63-4.06.96-5.31-.3,1.6-.02,3.85-.96,5.31Z"/>
      <path class="cls-12" d="M313.12,121.23c.32-.01.64,0,.96,0-1.56.7-3.97.87-5.79.96,1.3-1.25,3.21-.91,4.82-.96Z"/>
      <path class="cls-111" d="M131.23,230.76c.87,1.43,1.19,1.3,2.41,3.86-.81-1.29-1.61-2.56-2.41-3.86Z"/>
      <path class="cls-110" d="M352.2,122.2l-4.34-2.41c2.4.88,2.13.29,4.34,2.41Z"/>
      <path class="cls-120" d="M275.01,116.41c1.17.49,2.3.97,3.38,1.45v.48c-.16,0-.32.01-.48,0-1.02-.07-2.12.11-3.06-.45-.57-.34-.54-1.2-.8-1.48.32.02.65-.02.96,0Z"/>
      <path class="cls-73" d="M165.97,137.15c-1.1,1.18-2.44,2.38-3.38,3.38.63-1.43,1.74-3.11,3.38-3.38Z"/>
      <path class="cls-109" d="M126.41,270.32v-6.27c.33,2.48.99,3.55,0,6.27Z"/>
      <path class="cls-45" d="M306.85,113.51c-2.88,1.19-5.22,1.55-8.2,2.41v-.48c2.71-.68,5.36-1.79,8.2-1.93Z"/>
      <path class="cls-92" d="M169.83,133.29c-.15,1.53-1.63,2.35-2.89,2.89,1.28-1.45,1.4-1.66,2.89-2.89Z"/>
      <path class="cls-103" d="M139.92,266.94v-6.27c.64,2.97.49,3.37,0,6.27Z"/>
      <path class="cls-123" d="M275.01,116.41c1.15.09,3.89.21,3.38,1.45-1.96.35-2.24-.17-3.38-1.45Z"/>
      <path class="cls-51" d="M374.88,182.99s-.4.06-.47-.72c-.17-1.83.08-3.72-.01-5.56.56,2.2.6,3.93.48,6.27Z"/>
      <path class="cls-16" d="M256.19,255.85c.18-1.43-.51-3.33.96-4.34-.24,1.45-.11,3.03-.96,4.34Z"/>
      <path class="cls-164" d="M373.91,238.96c-.66-1.14-1.27-2.14-1.93-3.38,1.54.75,1.5,2.22,1.93,3.38Z"/>
      <path class="cls-168" d="M225.8,90.84c-.07.03-.19.69-.8.88-.86.26-1.78-.03-2.58.09-.16.02-.33-.02-.48,0,1.05-.89,2.58-.84,3.86-.96Z"/>
      <path class="cls-72" d="M213.73,105.79c.33,1.59-1.55,1.11-2.41,1.45.43-2.14,1.2-1.15,2.41-1.45Z"/>
      <path class="cls-89" d="M342.07,116.89c1.34.24,1.96-.62,2.41,1.45-.82-.34-2.76.14-2.41-1.45Z"/>
      <path class="cls-82" d="M289.96,182.99c-.16,1.57-1.4,1.51-1.93,1.93.08-.1-.19-.93.1-1.32.33-.46,1.36-.37,1.83-.61Z"/>
      <path class="cls-5" d="M188.16,119.78c-1.05.69-1.9,1.89-3.38,1.93,1-.86,1.74-2.11,3.38-1.93Z"/>
      <path class="cls-122" d="M379.22,215.32c-.7-1.69-1.02-1.45-1.45-3.86.66,1.23,1.48,2.37,1.45,3.86Z"/>
      <path class="cls-148" d="M334.35,127.5c.72.71,1.74,2.23,1.93,2.41-.87-.47-1.92-.31-1.93-1.93v-.48Z"/>
      <path class="cls-100" d="M246.54,97.59c-1.15,1.03-3.31.27-4.82.48,1.74-.25,3.13-.29,4.82-.48Z"/>
      <path class="cls-169" d="M286.59,399.63c-1.12.43-2.13,1.92-2.27,1.95-1.05.25-3.92-.99-4.46-.46-.19.18.27,1.33-.29,1.44-1.37.27-3.54-.26-5.04-.04l1.44-1.92c-2.32-.43-5.15-.79-7.49-.5-5.87.74-13.53,4.07-20.02,4.1l-12.05,5.55c1.39.29,2.53-.64,3.73-.85,1.31-.22,4.11-.09,5.23-.26.51-.08.7-1.17,1.2-1.51,1.64-1.13,5.14-1.21,4.8,1.66-.1.1-.19.19-.3.19-4.65.44-7.89,1.5-12.06,2.93-5.78,1.48-11.48,3.1-17.12,4.86-6.24,2.7-14.57,4.34-21.19,2.15-.31-1.07-1.42-.81-2.25-1.15-1.34-.54-1.34-.41-2.79-.81-14-3.77-28.08-7.6-42.12-11.44-1.99-.54-15.08-3.34-15.56-3.99-1.57-2.11,4.66-.93,5.04-.94,2.42-.08,10.05-1.56,11.49-1.37,1.84.24,6.32,2.72,8.58,3.5,11.37,3.94,32.9,13.01,44.12,12.53,16.25-.69,29.66-9.99,44.81-13.29,6.26-1.36,12.57-2.96,18.86-3.8l15.69,1.45Z"/>
      <path class="cls-149" d="M282.73,383.22c1.22,1.37,2.79,2.21,3.86,3.38,2.89,3.16,3.87,6.88,3.38,11.1-.57-.05-1.03.26-1.48-.3-1.09-1.38-1.35-2.88-3.09-4.54s-6.1-4.26-8.33-4.7c-4.13-.8-6.66,0-10.53.81-9.18,1.94-20.24,3.49-29.37,6.35-6.49,2.03-16.98,2.31-24.12,3.85-3.56.77-7.03,2.59-10.63,2.88-6.43.51-12.29-1.08-18.11-3.15s-10.9-5.61-16.25-7.39c-1.8-.6-7.54-.72-6.9-2.75,2.9-2.48,5.13.81,7.28,1.86,6.36,3.09,18.86,7.44,25.79,8.49,8.5,1.28,13.9-.86,21.8-3.23,2.37-.71,3.26-1.39,5.43-2.05,4.72-1.44,9.72-1.91,14.36-3.72,10.85-4.23,22.8-5.43,34.64-6.86,4.07-.49,8.25-.92,12.27-.03Z"/>
      <path class="cls-169" d="M221.45,393.84c-.74.23-2.13-.25-3.08.07-.66.23-.62,1.27-1.11,1.39-.79.19-1.89-.2-2.78,0-3.06.73-7.1,2.9-10.18,3.33-7.56,1.07-19.26-2.42-25.91-4.92-2.78-1.04-5.9-2.17-8.66-3.4-1.46-.65-2.92-2.37-5-2.72-4.15-.7-6.48,1.88-9,1.3-2.67-.62-15.44-7.33-17.91-9.12-.91-.66-1.5-1.01-1.28-2.33.64-.62,9.31,1.43,10.88,1.46,2.23.04,4.34-1.54,6.61-.86,14.04,5.47,32.55,16.96,47.83,15.75,7.06-.56,16.57-2.11,23.66-3.36,2.5-.44,4.71-2.03,7.52-1.4v1.44c-3.27.63-6.76,1.33-10.07,2.25-.98.27-1.42,1.1-1.51,1.13Z"/>
      <path class="cls-149" d="M231.59,359.58c3.88.36,8.79,2.63,12.47,4.18,3.01,1.26,1.87,1.98,5.38,1.61,10.4-1.07,32.42-5.38,32.83,10.88.04,1.62-.9,2.75-.98,4.08-1.64.22-.78-2.06-1.23-3.36-2.33-6.75-15.2-7.96-21.2-7.73-2.8.11-8.23,1.58-10.56,1.31-.28-.03-4.22-2.15-5.09-2.57-7.82-3.8-12.95-4.18-21.41-5.99-.41-.09-.32-.98-1.25-1.23-1.4-.39-3-.09-4.39-.69-.12-.84,1.1-.45,1.68-.48,4.09-.15,9.79-.37,13.76,0Z"/>
      <path class="cls-167" d="M158.21,366.85c.07.05.09.84.85,1.31,5.42,3.38,12.31,6.7,18.08,9.79.51.28.61.94.93,1.11,4.57,2.45,8.7,1.62,13.71,1.26,8.93-.65,17.45-2.6,26.04-2.91s17.55.44,26.32.5v1.44c-5.24.2-10.46,1.03-15.69,1.44-12.71,1.01-25.41,1.93-37.59,3.42-1.92.23-8.23.79-9.59-.02-.37-.22-.5-.99-1.16-1.35-7.35-4.02-14.19-7.84-20.86-12.94-.41-.32-2.43-2.21-2.44-2.38,0-.23.97-1,1.4-.69Z"/>
      <path class="cls-52" d="M251.85,409.28c.48.02.98-.05,1.45,0,.37.96,2.65,1.08,3.54,1.54,1.35.7,3.71,2.07,5.21,2.97,3.37,2.03,6.19,5.63,6.22,9.75.01,1.96-.66,3.05-1.95,1.18-6.26-7.49-14.37-12.81-24.36-9.48-10.43,2.78-21.06,5.19-31.49,7.48-1.66,1.46-16.49-2.51-17.32-3.65-.35-.48-.36-.94.14-1.32,10.98,3.1,21.34,2.84,31.69-1.96l16.03-4.3c2.91-1.48,7.55-3.05,10.83-2.22Z"/>
      <path class="cls-147" d="M251.37,408.79c.19.07.35.31.48.48-4.01-.14-3.81.59-6.63,1.33-.85.22-2.79-.04-3,.16s.26,1.34-.29,1.43c-.68.12-1.59-.21-2.36-.01-5.03,1.28-13.19,3.13-17.75,4.81-.59.22-.52,1.15-1.14,1.37-.89.31-12.44,2.28-13.53,2.29-2.7.04-7.67-1.75-10.51-2.25-.46-.08-3.09-.32-3.16.5l10.4,3.36c3.82.19,7.83-.32,11.52-.98,10.48-1.87,20.63-5.78,30.89-7.23,3.72-.52,8.42.44,11.54,2.52,3.36,2.24,6.26,4.84,8.51,8.12-2.27-.71-3.13-3.31-5.07-4.82-3.52-2.75-9.38-5.98-13.96-5.28-7.59,1.16-15.67,4.01-23.32,5.63-3.45.73-6.97,1.07-10.39,1.69-1.37.25-1.06,1.27-1.99,1.37-6.19.68-10.63-.92-16.27-3.09-3.05-1.17-5.79-2.34-8.12-4.66l5.97,1.03c1.08,1.67,5.18,1.96,7.53,2.34,11.07,1.81,18.64-1.8,28.85-4.68,3.71-1.04,7.18-2.02,10.42-3.07,2.91-.95,8.61-3.44,11.39-2.38Z"/>
      <path class="cls-169" d="M349.31,43.07c.51.28,2.34,1.31,2.77,1.58.68.44.38,2.21,2.68.82,1.85-1.12,1.05-.59,3.37-1.06,1.64-.33,1.62-1.37,4-.41,4.94,1.99,12.85,6.27,17.25,9.28,1.23.84,2.35,1.8.07,1.87-2,.06-3.88-.84-5.79-.98-8.55-.6-9.18,1.05-17.73-2.54-10.2-4.28-20.37-9.36-31.13-12.29-7.18-1.95-14.38.28-21.52,1.35-6.01.9-12,2.49-18.14,2.36-.11-1.26-.07-.8.73-.94,2.11-.37,5.45-1.02,7.35-1.81,6.27-2.62,13.14-3.43,19.6-5.52.66-.21.61-1.26,1.12-1.39.57-.15,3.51-.11,4.15.03.27.06.35.93,1.74,1.21,2.78.56,6.35.71,9.22,1.18.12-.39.63-.28.96,0l10.13,3.38c1.17-.97,7.93,1.75,8.68,2.52.35.36.46.86.49,1.34Z"/>
      <path class="cls-75" d="M339.01,50.48c4.68,2.72,13.08,7.54,17.17,10.91.33.27,3.65,3.52,3.26,3.87-.33.29-5.21-2.1-5.94-2.52-.65-.37-.77-1.12-1.17-1.35-6.05-3.4-11.99-6.67-18.25-9.62-9.43,1.34-18.96,1.76-28.43,2.4-1.98.13-4.26.88-6.26.98-8.81.42-17.6-.29-26.31-.99-.78-.59,0-.88.71-.96,3.62-.45,7.93-.21,11.58-.49,5.38-.4,15.06-.42,19.7-1.45,7.51-1.66,16.51-1.7,24.65-2.44,1.14-.11,2.22-.93,3.44-.96,1.61-.04,4.34,1.75,5.84,2.62Z"/>
      <path class="cls-89" d="M226.76,37.28c.04-.61-.17-1.38.23-1.93,1.44-1.96,1.7.59,2.16,1.21,7.62,10.43,16.08,7.88,27.17,5.92,6.26-1.11,12.19-2.72,18.33-3.86,8.66-1.61,18.61-3.02,26.58-5.28,4.89-1.38,15.59-3.5,20.36-2.84,10.94,1.52,20.5,8.48,30.83,11.15,1.72.45,3.55,1.34,5.57,1.43-1.88,1.88-6.44,1.09-8.68,0-2.82-1.54-6.54-2.73-9.17-3.86l-10.13-3.38c-.3-.05-.66.05-.96,0v-.48c.74.14,1.74-.14,2.62.02s5.39,2.12,5.58,1.9c-.08-.53.34-1.36-.32-1.44-1.69-.21-3.69-.81-5.26-1.42-1.71-.66-1.9-1.02-4.16-1.63-8.46-2.28-13.83-1.67-22.24.24-1.13.26-2.07,1.45-3.59,1.72-8.28,1.5-16.88,2.75-25.48,4.43-9.48,1.86-19.33,3.22-28.83,5.34-.39.09-.36,1.32-2.97,1.46-3.27.18-2.63-.67-4.48-1.35-2.93-1.07-6.48-1.81-8.77-4.26-.98-1.04-2.26-5.39-4.38-3.1Z"/>
      <path class="cls-79" d="M144.74,270.8c-.26.43-1.35,2.31-1.46,2.41-.51.46-1.03.06-.98-.73.1-1.6,1.76-3.01,2.31-4.46,1.43-3.77,1.24-8.25.61-12.17-.18-1.11-.7-2.19-.48-3.38.18.38,1.11,2.87,1.44,2.41v-3.86c1.64,6.53,2.14,13.75-1.44,19.78Z"/>
      <path class="cls-174" d="M301.06,118.82c.28.02.81.71,2.12.48,1.6-.29,5.04-2.41,6.03-2.68,1.55-.43,9.37-1.07,10.19-.2.09.1-.06,1.05,0,1.44l-11.78,1.01c-2.17.86-3.99,1.04-6.32.93-1.18-.06-1.58.35-.71-.96.16,0,.32,0,.48,0Z"/>
      <path class="cls-44" d="M338.21,125.57c-1.12-.87-2.91-.79-2.41-3.38.8.1,1.88-.2,2.59-.02.56.13.24.94.3.99-1.2.39-1.15,1.48-.48,2.41Z"/>
      <path class="cls-35" d="M345.93,134.74c-1.14-.99-.63-.74-1.43-1.69-.72-.85-1.92-1.39-1.95-2.65,1.46,1.37,3.25,2.09,3.38,4.34Z"/>
      <path class="cls-31" d="M351.24,132.33v.48c-1.32-.69-1.74-2.35-2.41-3.38.94.84,2.29,1.43,2.41,2.89Z"/>
      <path class="cls-86" d="M341.59,129.43c-.72-.64-2.36-.97-2.41-2.89,1.02.87,2,1.43,2.41,2.89Z"/>
      <path class="cls-88" d="M348.83,129.43c-.58-.52-2.04-.85-2.41-2.41.26.15.74.06,1.22.45.64.51.79,1.37,1.19,1.97Z"/>
      <path class="cls-116" d="M345.93,200.84c-.37-1.42.34-1.21.89-1.76,4.6-4.6,11.23-8.72,15.3-13.17,1.43-1.56,3.97-7.99,6.01-4.14l.48-1.19c.13.97.73,2.7.96,3.86-1.91-.3-.42,2.44-.5,3.56-.06.81-1.04,2.6-.95,2.71h-.96c.86-1.61,1.92-11.65-1.45-8.2-1.28,7.24-3.61,9.94-8.2,15.44-.44.76-.92,1.09-1.45.96.18-2.13-1.26-.1-2.41,0,.48-.69,1.73-2.05,1.93-2.41,1.06-2.19,2.15-4,3.8-5.95-1.6,1.75-3.55,2.68-5.73,3.54-2.4,2.04-5.56,4.56-7.72,6.75Z"/>
      <path class="cls-97" d="M344.97,233.65c-1.26-.14-2.39-2.58-2.92-3.59-3.76-7.13-4.67-18.15.2-24.95.47-.65.93-.95,1.27-1.37-.98,3.18-3.11,5.76-3.64,9.14-1.22,7.74,1.02,14.33,5.09,20.77Z"/>
      <path class="cls-1" d="M366.19,221.59c2.38,1.83,2.64-1.89,2.84-3.68.94-8.53-1.22-11.54-1.87-19v-.96c1.16.33.83,1.31,1,2.13.88,4.2,2.99,9.95,2.4,14.05-.15,1.08-.83,1.62-.97,2.41-.46,2.58.06,4.4-1.72,6.97-.93,1.35-1.49-1.44-1.68-1.92Z"/>
      <path class="cls-166" d="M345.45,222.55c-.64-1.83-1.34-2.87-1.46-5.05-.31-5.53,2.95-12.26,7.25-15.7-3.24,4.83-6.28,8.66-6.31,14.71,0,1.07.3,5.19.52,6.04Z"/>
      <path class="cls-32" d="M361.37,215.8c-1.42-3.21-1.59-7.81-1.44-11.33.05-1.16.5-5.63.84-6.39.31-.67.72-1.26,1.56-1.09.03.96-.03,1.93,0,2.89.15,1.46.15,2.91,0,4.34l-.96-6.27c-.1,1.82.15,3.69-.04,5.51-.52,4.81-.69,7.27.04,12.34Z"/>
      <path class="cls-133" d="M364.75,224.48c4.55,1.59,1.18,6.66-.66,9.24-2.01,2.82-3.61,4.02-6.43,1.2-.53-.53-2.01-2.93-2.56-3.68,2.91.39,3.49,5.72,6.76,4.11.47-.23,4.1-6.12,4.25-6.88.43-2.2-.64-2.47-1.36-3.98Z"/>
      <path class="cls-150" d="M348.34,219.18c-1.24-6.18,3.47-15.64,7.72-20.26.33-.36,1.16-.62,1.45-.96-3.55,6.87-9.7,12.9-9.17,21.23Z"/>
      <path class="cls-64" d="M376.81,215.8c-.81.46-.88,1.32-.21,2.58l-.76.79c-.14.42-.3.42-.48,0-.18-.57-.52-1.06-.96-1.45.03-.44.05-1.02,0-1.45-.1-.77-2.2-7.25-.24-7.23.88,0,.62,2.42.85,3.01.45,1.17,1.24,2.28,1.81,3.74Z"/>
      <path class="cls-127" d="M373.91,265.5c-.09.07-.17,1.77-1.45,1.45-.92-1.7-1.97-3.9-2.41-5.79.65.62,1.06,1.6,1.93,1.93.06-1.44-.13-2.95-.48-4.34,1.84,1.78,1.28,4.58,2.41,6.75Z"/>
      <path class="cls-105" d="M367.16,190.71c-.26,1.81-.12,5.3,0,7.24.02.32-.03.65,0,.96-2.08-4.94,1.28-11.06.48-15.68-.22-1.26-.89-1.51-1.93-.72.42-2.38,2.08-1.42,2.4.25.21,1.11.18,5.09-.01,6.25-.13.78-.9,1.43-.94,1.7Z"/>
      <path class="cls-127" d="M359.92,250.06c3.06,3.4,7.41,6.37,9.65,10.61-2.89-2.76-5.62-5.63-8.48-8.42-.65-.64-1.48-1.03-1.17-2.19Z"/>
      <path class="cls-33" d="M354.13,230.27c-3.34-2.49-3.71-3.92-4.82-7.72l4.82,7.72Z"/>
      <path class="cls-116" d="M366.68,174.31c1.75.03,1.48-1.54,1.45-2.9,2.44-.74,1.57,2.95.48,4.35.02-.48,0-.97,0-1.44-.77-.25-.3.84-.71.97-.97.31-1.44-.03-1.21-.98Z"/>
      <path class="cls-163" d="M363.3,211.46c-1.51-1.95-.91-4.87-.96-7.24-.03-1.44.05-2.9,0-4.34l.96,11.58Z"/>
      <path class="cls-86" d="M348.83,229.31c-1.83-2.45-2.41-3.98-3.38-6.75.4,1.51,3.89,4.54,3.38,6.75Z"/>
      <path class="cls-131" d="M373.43,220.62c.16.14.39.3.48.48-1.05-.23-1.18.5-1.32,1.31-.65,3.72-.96,6.01.84,9.31-3.89-2.24-1.85-3.39-1.47-6.06.19-1.33-.27-3.14.09-4.26.28-.86,1.24-.65,1.38-.78Z"/>
      <path class="cls-134" d="M354.61,241.85c-.77.54-.63,1.44-2.55.88-1.39-.41-1.34-1.69-1.79-2.32,1.35,1.28,2.42,1.74,4.34,1.45Z"/>
      <path class="cls-111" d="M362.82,220.14c-.79-1.91-1.1-1.9-1.45-4.34.48,1.08,2.1,2.27,1.45,4.34Z"/>
      <path class="cls-116" d="M368.61,180.1c-1.43-.52-1.46-3.31,0-3.86-.12,1.83-.3,1.8,0,3.86Z"/>
      <path class="cls-153" d="M369.09,30.05c-.09.72-.68.78-1.25.92-1.33.32-4.47,1.11-5.62.91-7.4-1.24-16.46-7.23-24.27-8.57l-4.57-2.42,35.7,9.17Z"/>
      <path class="cls-70" d="M377.29,188.3c1.1-1.17,4.14-.06,5.39.52,7.82,3.6,12.54,9.09,16.8,16.37.28.47.15,1.78,1.25,3.33,1.98,2.78,6.17,4.79,5.99,8.25-9.91-.02-11.79-5.97-20.65-8.06-1.79-.42-8.04-1.6-9.27-.62-.74.59-.01,1.8-1.44,1.45l-.97-2.89c.48-.03.97.03,1.44,0,5.15-.39,14.47,1.42,19.23,3.69,1.87.89,2.93,2.43,4.65,3.09.46.18,1.09.75,1.21-.27.1-.81-7.3-12.25-7.74-14.33-3.15-4-6.34-5.31-10.59-7.61-1.85-1-3.56-2.3-5.31-2.89Z"/>
      <path class="cls-121" d="M380.19,224c.96,2.36,2.07,4.71,2.58,7.31.3,1.53,1.14,4.71-1.13,4.75.33-2.49-1.44-4.48-2.29-6.66-.22-.58-.03-1.26-.13-1.54l1.93,1.93-.96-5.79Z"/>
      <path class="cls-70" d="M374.4,191.67c-1.03.62-1.6,1.74-1.45,0,.22-1.47-.53-15.44.24-15.44-.32,3.34,1.02,6.92,1.2,9.9.11,1.84-.1,3.71,0,5.54Z"/>
      <path class="cls-156" d="M377.77,224.97c-1.2-2.32-1.58-3.16-2.41-5.79h.48c.61,1.94,1.68,3.72,1.93,5.79Z"/>
      <path class="cls-124" d="M248.47,273.21c-1.39,2.12-8.26,9.67-10.3,10.92-4.67,2.86-11.91-.22-14.81,4.26-6.4,9.9-2.76,32.18,11.11,33.55,10.23,1.01,16.82-2.47,24.61-8.2l1.93.48c-1.61.27-2.39,1.4-3.37,2.42-2.54,1.38-5.03,3.05-7.72,4.82-.82.35-7.11,2.81-7.51,2.86-6.03.82-10.48-.59-15.41-3.34-3.48-1.94-7.07-6.91-8.44-10.62-2.69-7.29-1.34-21.89,5.48-26.84.24-.17,1.96-1.05,2.24-1.14,5.27-.1,8.83,1.01,13.2-2.49s7.84-8.21,10.45-12.95c1.69-3.08,1.86-3.56,2.89-6.75l1.45-.72c-.89,4.53-3.26,9.88-5.79,13.75Z"/>
      <path class="cls-108" d="M355.1,146.32c-.09-.16-.77-.19-.96-1.2-.35-1.89.07-4.9,0-7.01l.96,8.2Z"/>
      <path class="cls-172" d="M211.8,416.52c-1,2.57-4.5,1.65-7.02,1.47-3.01-.22-2.49-1.61,0-1.49.82.04,1.68.53,2.46.52,1.52-.03,2.99-.77,4.56-.5Z"/>
      <path class="cls-172" d="M234.48,410.73c-.61,2.21-.97,1.16-2.89.95l2.89-.95Z"/>
      <path class="cls-95" d="M340.14,39.21c-3.31-.85-7.33-1.46-10.13-3.38,3.87.68,6.68,1.9,10.13,3.38Z"/>
      <path class="cls-28" d="M355.58,196.5c1.35-2.45.98-3.52-1.93-2.41,2.69-2.28,5.48-4.5,8.2-6.75-.79,3.54-3.83,6.6-6.27,9.17Z"/>
    </g>
  </g>
</svg>